<svg width="28" height="28" viewBox="0 0 28 28" fill="none" xmlns="http://www.w3.org/2000/svg">
<path d="M8.75 14C8.75 13.7679 8.84219 13.5454 9.00628 13.3813C9.17038 13.2172 9.39294 13.125 9.625 13.125H17.5V7.4375C17.5 5.6875 15.6521 4.375 14 4.375H5.6875C4.87554 4.37587 4.09709 4.6988 3.52294 5.27294C2.9488 5.84709 2.62587 6.62554 2.625 7.4375V20.5625C2.62587 21.3745 2.9488 22.1529 3.52294 22.7271C4.09709 23.3012 4.87554 23.6241 5.6875 23.625H14.4375C15.2495 23.6241 16.0279 23.3012 16.6021 22.7271C17.1762 22.1529 17.4991 21.3745 17.5 20.5625V14.875H9.625C9.39294 14.875 9.17038 14.7828 9.00628 14.6187C8.84219 14.4546 8.75 14.2321 8.75 14ZM25.1185 13.3815L20.7435 9.00648C20.5781 8.84932 20.3578 8.76299 20.1296 8.76591C19.9015 8.76883 19.6835 8.86077 19.5221 9.02212C19.3608 9.18347 19.2688 9.40147 19.2659 9.62964C19.263 9.85781 19.3493 10.0781 19.5065 10.2435L22.3874 13.125H17.5V14.875H22.3874L19.5065 17.7565C19.4218 17.8369 19.3541 17.9335 19.3073 18.0405C19.2606 18.1476 19.2357 18.2629 19.2342 18.3796C19.2327 18.4964 19.2546 18.6123 19.2986 18.7205C19.3426 18.8287 19.4079 18.927 19.4904 19.0096C19.573 19.0921 19.6713 19.1574 19.7795 19.2014C19.8877 19.2454 20.0036 19.2673 20.1204 19.2658C20.2371 19.2643 20.3524 19.2394 20.4595 19.1927C20.5665 19.1459 20.6631 19.0782 20.7435 18.9935L25.1185 14.6185C25.2825 14.4544 25.3746 14.232 25.3746 14C25.3746 13.768 25.2825 13.5456 25.1185 13.3815Z" fill="#252525"/>
</svg>
