<svg width="573" height="619" viewBox="0 0 573 619" fill="none" xmlns="http://www.w3.org/2000/svg">
<path d="M97.6507 92.4662H67.3046V106.319H97.6507V92.4662Z" fill="#EBEBEB"/>
<path d="M80.7243 74.998H50.3782V88.8512H80.7243V74.998Z" fill="#EBEBEB"/>
<path d="M114.577 74.998H84.231V88.8512H114.577V74.998Z" fill="#EBEBEB"/>
<path d="M505.695 74.998H475.349V88.8512H505.695V74.998Z" fill="#EBEBEB"/>
<path d="M505.695 448.812H475.349V462.665H505.695V448.812Z" fill="#EBEBEB"/>
<path d="M522.622 431.344H492.276V445.197H522.622V431.344Z" fill="#EBEBEB"/>
<path d="M80.7243 448.8H50.3782V462.653H80.7243V448.8Z" fill="#EBEBEB"/>
<path d="M133.99 297.826H164.336V283.972H133.99V297.826Z" fill="#EBEBEB"/>
<path d="M150.917 315.294H181.263V301.441H150.917V315.294Z" fill="#EBEBEB"/>
<path d="M96.7797 0H95.4274V135.128H96.7797V0Z" fill="#C7C7C7"/>
<path d="M135.56 176.217L132.386 183.756H59.8097L56.6468 176.217L87.5429 153.116H104.664L135.56 176.217Z" fill="#EBEBEB"/>
<path d="M106.807 130.857L104.664 153.116H87.543L85.3999 130.857H106.807Z" fill="#DBDBDB"/>
<path d="M135.56 176.229L132.386 183.756H59.8097L56.6468 176.229H135.56Z" fill="#DBDBDB"/>
<path d="M192.207 0H190.855V110.813H192.207V0Z" fill="#C7C7C7"/>
<path d="M230.988 151.903L227.813 159.442H155.237L152.074 151.903L182.97 128.802H200.092L230.988 151.903Z" fill="#EBEBEB"/>
<path d="M202.235 106.542L200.092 128.802H182.97L180.827 106.542H202.235Z" fill="#DBDBDB"/>
<path d="M230.988 151.915L227.813 159.442H155.237L152.074 151.915H230.988Z" fill="#DBDBDB"/>
<path d="M488.242 97.2325H413.763V177.69H488.242V97.2325Z" fill="white"/>
<path d="M409.89 93.0481V181.875H492.115V93.0481H409.89ZM488.196 177.69H413.706V97.2201H488.196V177.69Z" fill="#DBDBDB"/>
<path d="M482.89 162.104V134.286H424.845V162.104H482.89Z" fill="#EBEBEB"/>
<path d="M465.872 153.524V121.398H436.133V153.524H465.872Z" fill="#C7C7C7"/>
<path d="M495.29 93.0481H492.115V181.875H495.29V93.0481Z" fill="#C7C7C7"/>
<path d="M488.242 211.475H413.763V291.933H488.242V211.475Z" fill="white"/>
<path d="M446.012 224.35H426.564V285.037H446.012V224.35Z" fill="#C7C7C7"/>
<path d="M409.89 207.291V296.117H492.115V207.291H409.89ZM488.196 291.933H413.706V211.463H488.196V291.933Z" fill="#DBDBDB"/>
<path d="M465.872 235.641H436.133V267.767H465.872V235.641Z" fill="#EBEBEB"/>
<path d="M495.29 207.291H492.115V296.117H495.29V207.291Z" fill="#C7C7C7"/>
<path d="M488.242 325.718H413.763V406.175H488.242V325.718Z" fill="white"/>
<path d="M462.892 336.686H422.026V363.081H462.892V336.686Z" fill="#EBEBEB"/>
<path d="M409.89 321.533V410.36H492.115V321.533H409.89ZM488.196 406.175H413.706V325.705H488.196V406.175Z" fill="#DBDBDB"/>
<path d="M465.872 349.884H436.133V382.01H465.872V349.884Z" fill="#C7C7C7"/>
<path d="M495.29 321.533H492.115V410.36H495.29V321.533Z" fill="#C7C7C7"/>
<path d="M376.702 571.015C452.658 571.015 514.233 563.449 514.233 554.116C514.233 544.784 452.658 537.218 376.702 537.218C300.745 537.218 239.17 544.784 239.17 554.116C239.17 563.449 300.745 571.015 376.702 571.015Z" fill="#EBEBEB"/>
<path d="M35.1478 534.816L97.983 534.519L160.83 534.408L286.5 534.197L412.17 534.408L475.017 534.507L537.852 534.816L475.017 535.113L412.17 535.225L286.5 535.435L160.83 535.225L97.983 535.113L35.1478 534.816Z" fill="#263238"/>
<path d="M310.703 534.816H211.116C207.976 498.345 204.825 460.969 202.326 431.171C202.246 430.18 202.154 429.19 202.074 428.212C199.255 394.501 197.341 371.202 197.341 371.202H291.313C291.32 371.305 291.32 371.408 291.313 371.511C292.012 377.033 301.581 457.602 310.703 534.816Z" fill="#37474F"/>
<path d="M226.209 534.816H224.616C220.273 495.324 216.743 455.757 213.534 416.141C213.351 413.773 213.16 411.4 212.961 409.023C212.319 400.889 211.678 392.718 211.059 384.572C211.059 384.325 211.391 384.325 211.426 384.572C212.128 391.794 212.808 398.999 213.465 406.188C213.471 406.208 213.471 406.229 213.465 406.25C213.695 408.874 213.947 411.486 214.187 414.123C216.743 441.458 219.276 468.769 222.049 496.067C223.371 509 224.757 521.916 226.209 534.816Z" fill="#263238"/>
<path d="M277.745 371.202L265.139 461.229L264.692 464.275L263.546 472.384L263.454 472.953L263.156 475.132L254.767 534.816H201.272C195.783 501.39 190.167 467.122 185.515 438.685C185.411 438.042 185.308 437.447 185.205 436.804C178.936 398.537 174.456 371.19 174.456 371.19L277.745 371.202Z" fill="#263238"/>
<path d="M291.405 371.115C291.405 371.115 291.405 371.239 291.348 371.511C290.603 376.76 282.512 433.052 269.069 469.994C268.978 470.304 268.875 470.589 268.748 470.91C268.748 470.91 266.858 471.542 263.442 473.003C262.113 473.572 260.532 474.241 258.744 475.107L256.796 476.048C252.853 477.955 248.075 480.455 242.62 483.649C242.093 483.947 241.577 484.256 241.061 484.566C241.061 484.566 241.061 484.801 241.061 485.234C240.786 489.109 239.388 508.991 237.623 534.754H143.812C151.031 454.371 158.962 371.053 158.962 371.053L291.405 371.115Z" fill="#37474F"/>
<path d="M169.459 386.776C166.789 424.485 164.233 462.195 161.437 499.855C160.566 511.509 159.672 523.162 158.755 534.816H157.38C161.345 485.478 165.116 436.139 168.691 386.801C168.714 386.256 169.493 386.256 169.459 386.776Z" fill="#263238"/>
<path d="M273.493 468.261C262.265 472.676 251.414 478.135 241.061 484.578C241.017 484.599 240.977 484.63 240.943 484.667C240.91 484.705 240.883 484.75 240.866 484.799C240.848 484.848 240.84 484.9 240.841 484.952C240.842 485.005 240.852 485.056 240.872 485.104C240.892 485.152 240.92 485.195 240.955 485.232C240.99 485.268 241.031 485.296 241.076 485.315C241.122 485.334 241.17 485.343 241.218 485.342C241.267 485.341 241.315 485.33 241.359 485.308C252.28 480.233 263.42 475.404 274.077 469.672C274.251 469.589 274.386 469.434 274.454 469.243C274.521 469.051 274.516 468.838 274.438 468.651C274.361 468.464 274.218 468.318 274.04 468.245C273.863 468.171 273.666 468.177 273.493 468.261Z" fill="#263238"/>
<path d="M276.965 387.271C276.965 386.863 276.266 386.776 276.278 387.271C276.358 401.285 275.533 413.603 274.444 426.701C273.928 432.78 269.402 466.379 259.649 463.928C258.01 463.52 257.174 461.786 256.922 459.125C256.612 455.931 257.724 452.006 258.217 448.825C259.363 441.78 260.176 434.724 260.726 427.63C261.863 414.4 261.733 401.079 260.337 387.878C260.323 387.799 260.284 387.727 260.226 387.676C260.169 387.624 260.096 387.596 260.022 387.596C259.947 387.596 259.875 387.624 259.817 387.676C259.76 387.727 259.721 387.799 259.707 387.878C259.707 406.237 259.271 424.56 256.727 442.746C255.512 451.486 251.432 464.646 259.901 465.983C268.37 467.32 274.089 445.321 275.143 439.292C278.077 422.455 278.191 404.294 276.965 387.271Z" fill="#263238"/>
<path d="M259.901 464.782C259.035 467.053 258.304 469.381 257.713 471.752C257.081 473.581 256.77 475.52 256.796 477.472C256.81 477.55 256.845 477.621 256.897 477.678C256.948 477.734 257.013 477.774 257.085 477.791C257.157 477.808 257.232 477.802 257.3 477.774C257.369 477.746 257.429 477.697 257.472 477.633C258.492 475.911 259.264 474.033 259.764 472.062C260.509 469.908 261.288 467.766 261.976 465.587C261.992 465.319 261.927 465.052 261.791 464.826C261.655 464.601 261.454 464.43 261.22 464.339C260.985 464.248 260.73 464.242 260.492 464.322C260.254 464.402 260.047 464.564 259.901 464.782Z" fill="#263238"/>
<path d="M215.746 398.265C215.764 396.8 215.626 395.337 215.333 393.907C215.323 393.858 215.297 393.815 215.261 393.784C215.224 393.753 215.179 393.736 215.133 393.736C215.087 393.736 215.042 393.753 215.005 393.784C214.969 393.815 214.943 393.858 214.932 393.907C214.66 395.124 214.51 396.369 214.485 397.621C214.348 399.069 214.164 400.505 214.027 401.954C213.735 404.911 213.256 407.844 212.594 410.731C211.363 416.192 208.789 421.192 205.145 425.204C201.521 429.046 197.24 432.09 192.539 434.167C187.302 436.568 181.779 437.46 176.369 439.181C176.14 439.242 176.209 439.601 176.369 439.614C182.376 439.597 188.324 438.336 193.892 435.9C198.81 433.902 203.288 430.815 207.036 426.838C210.799 422.736 213.447 417.597 214.692 411.982C215.318 409.094 215.671 406.145 215.746 403.18C215.837 401.543 215.837 399.901 215.746 398.265Z" fill="#263238"/>
<path d="M251.123 241.41C258.675 259.683 313.649 344.337 357.827 354.563C365.276 356.284 388.391 364.182 401.765 343.545C419.837 315.678 431.366 262.307 428.833 233.846C426.736 210.324 367.201 227.965 363.695 241.361C361.047 251.5 356.337 284.765 354.412 284.232C341.898 280.741 304.618 245.854 267.465 224.375C250.241 214.347 245.313 227.284 251.123 241.41Z" fill="#AD6359"/>
<path d="M350.756 298.692C351.014 296.611 351.37 294.545 351.822 292.502C352.77 288.566 354.051 284.733 355.65 281.051C355.718 280.89 355.993 280.989 355.936 281.175C354.79 284.975 353.954 288.924 353.014 292.799C352.555 294.731 352.12 296.65 351.719 298.593C351.318 300.537 350.814 302.555 350.504 304.56C350.504 304.672 350.298 304.659 350.309 304.56C350.435 302.567 350.504 300.636 350.756 298.692Z" fill="#263238"/>
<path d="M429.108 238.191C429.108 238.191 428.123 207.365 417.889 186.864C410.818 172.689 392.241 143.707 347.788 141.85C337.245 141.417 321.923 148.87 338.907 156.335C350.974 161.646 360.108 161.076 366.605 165.545C366.605 165.545 348.166 177.529 348.166 188.956C348.166 194.069 347.467 205.137 349.14 215.957C349.14 215.957 352.429 219.064 355.352 218.928C355.352 218.928 355.673 229.624 366.812 240.667L429.108 238.191Z" fill="#AD6359"/>
<path d="M293.376 173.877C287.967 177.814 285.01 187.111 289.365 195.951C293.72 204.79 304.744 203.663 309.993 199.788C315.242 195.914 319.677 186.245 315.196 178C311.403 170.844 302.899 166.981 293.376 173.877Z" fill="#FF8473"/>
<path opacity="0.1" d="M293.376 173.877C287.967 177.814 285.01 187.111 289.365 195.951C293.72 204.79 304.744 203.663 309.993 199.788C315.242 195.914 319.677 186.245 315.196 178C311.403 170.844 302.899 166.981 293.376 173.877Z" fill="black"/>
<path d="M295.026 176.192C290.614 179.399 288.208 187 291.76 194.217C295.313 201.435 304.366 200.519 308.629 197.35C312.892 194.18 316.548 186.294 312.892 179.547C309.729 173.704 302.785 170.559 295.026 176.192Z" fill="#FF8473"/>
<path d="M304.263 180.203C304.653 180.538 306.051 179.275 305.283 178.681C304.515 178.086 303.759 179.782 304.263 180.203Z" fill="white"/>
<path d="M307.529 188.485C307.334 188.968 308.813 190.12 309.156 189.166C309.5 188.213 307.793 187.842 307.529 188.485Z" fill="white"/>
<path d="M310.807 185.267C310.887 185.787 312.709 185.873 312.514 184.871C312.319 183.868 310.704 184.573 310.807 185.267Z" fill="white"/>
<path d="M304.171 176.576C304.653 176.489 304.744 174.533 303.816 174.731C302.888 174.929 303.53 176.687 304.171 176.576Z" fill="white"/>
<path d="M295.45 183.434C295.576 182.927 293.949 182.036 293.743 183.038C293.536 184.041 295.278 184.115 295.45 183.434Z" fill="white"/>
<path d="M299.347 194.366C298.946 194.057 297.605 195.381 298.395 195.938C299.186 196.495 299.874 194.787 299.347 194.366Z" fill="white"/>
<path d="M302.544 193.71C302.063 193.623 301.398 195.455 302.338 195.579C303.277 195.703 303.186 193.821 302.544 193.71Z" fill="white"/>
<path d="M299.186 185.96C299.53 185.589 298.522 183.942 297.891 184.722C297.261 185.502 298.728 186.455 299.186 185.96Z" fill="white"/>
<path d="M289.376 187.322C289.376 187.322 298.258 186.257 299.427 188.201C300.596 190.144 294.281 198.687 293.239 197.931C292.196 197.176 288.414 190.565 289.376 187.322Z" fill="#FF8473"/>
<path opacity="0.1" d="M289.376 187.322C289.376 187.322 298.258 186.257 299.427 188.201C300.596 190.144 294.281 198.687 293.239 197.931C292.196 197.176 288.414 190.565 289.376 187.322Z" fill="black"/>
<path d="M304.561 200.048C304.561 200.048 301.937 190.813 303.495 189.216C305.054 187.619 313.981 192.719 313.5 193.97C313.018 195.22 307.69 200.457 304.561 200.048Z" fill="#FF8473"/>
<path opacity="0.1" d="M304.561 200.048C304.561 200.048 301.937 190.813 303.495 189.216C305.054 187.619 313.981 192.719 313.5 193.97C313.018 195.22 307.69 200.457 304.561 200.048Z" fill="black"/>
<path d="M315.872 183.038C315.872 183.038 307.185 185.316 305.799 183.546C304.412 181.776 309.661 172.404 310.784 173.048C311.907 173.691 316.433 179.683 315.872 183.038Z" fill="#FF8473"/>
<path opacity="0.1" d="M315.872 183.038C315.872 183.038 307.185 185.316 305.799 183.546C304.412 181.776 309.661 172.404 310.784 173.048C311.907 173.691 316.433 179.683 315.872 183.038Z" fill="black"/>
<path d="M301.146 171.81C301.146 171.81 303.266 181.194 301.627 182.692C299.988 184.19 291.313 178.52 291.898 177.306C292.482 176.093 298.052 171.191 301.146 171.81Z" fill="#FF8473"/>
<path opacity="0.1" d="M301.146 171.81C301.146 171.81 303.266 181.194 301.627 182.692C299.988 184.19 291.313 178.52 291.898 177.306C292.482 176.093 298.052 171.191 301.146 171.81Z" fill="black"/>
<path d="M319.402 187.545C315.219 189.265 295.198 193.574 295.198 193.574L295.588 192.546L317.052 185.329C317.207 185.264 317.333 185.139 317.405 184.978C317.478 184.817 317.491 184.633 317.442 184.462C317.417 184.372 317.376 184.289 317.321 184.217C317.265 184.145 317.197 184.085 317.12 184.043C317.043 184 316.959 183.974 316.872 183.968C316.786 183.961 316.699 183.973 316.617 184.004L296.55 189.946L297.181 188.3L319.138 180.55C319.231 180.532 319.319 180.493 319.396 180.435C319.474 180.378 319.54 180.303 319.588 180.217C319.637 180.13 319.669 180.033 319.68 179.932C319.692 179.831 319.684 179.728 319.656 179.631C319.628 179.534 319.581 179.444 319.519 179.368C319.457 179.292 319.38 179.231 319.294 179.189C319.209 179.147 319.116 179.125 319.022 179.125C318.927 179.125 318.834 179.147 318.748 179.188L298.201 185.651L298.808 184.078L321.27 175.734C321.354 175.709 321.432 175.665 321.5 175.606C321.568 175.547 321.624 175.473 321.665 175.39C321.706 175.306 321.731 175.215 321.737 175.121C321.744 175.027 321.733 174.932 321.705 174.843C321.682 174.753 321.642 174.67 321.588 174.598C321.533 174.526 321.466 174.467 321.39 174.424C321.314 174.381 321.23 174.355 321.144 174.349C321.059 174.342 320.973 174.354 320.891 174.385L299.805 181.454L300.321 180.117C300.321 180.117 321.453 171.302 323.951 170.782C328.455 169.829 325.739 184.945 319.402 187.545Z" fill="#455A64"/>
<path d="M324.054 175.041C326.988 173.592 339.033 167.86 340.454 167.266C342.104 166.573 400.47 142.048 402.796 141.974C405.123 141.9 404.068 150.528 402.727 152.348C401.387 154.168 346.092 170.621 340.522 172.998C334.689 175.474 323.722 180.426 323.722 180.426L324.054 175.041Z" fill="#455A64"/>
<path d="M414.692 185.267C408.354 180.315 394.74 170.151 380.919 165.991C365.574 161.373 334.861 156.954 331.824 169.222C329.59 178.222 341.187 181.033 341.187 181.033C341.187 181.033 328.134 182.085 327.767 190.689C327.435 198.538 336.511 200.123 336.511 200.123C336.511 200.123 328.696 202.24 329.727 209.866C330.965 219.027 347.135 213.085 355.81 221.206C357.758 223.026 414.692 185.267 414.692 185.267Z" fill="#AD6359"/>
<path d="M379.108 184.326C372.45 180.748 355.363 176.824 341.416 180.748C341.095 180.835 340.992 181.144 341.29 181.132C353.974 180.574 366.674 181.688 379.108 184.45C379.154 184.462 379.189 184.363 379.108 184.326Z" fill="#263238"/>
<path d="M374.352 200.927C368.301 198.451 350.527 195.282 336.534 199.813C336.214 199.912 336.133 200.222 336.431 200.197C349.054 198.941 361.768 199.236 374.329 201.076C374.398 201.101 374.421 200.952 374.352 200.927Z" fill="#263238"/>
<path d="M289.021 302.827L347.238 269.265C347.238 269.265 289.537 231.283 262.915 220.364C235.171 208.937 224.673 217.343 249.656 250.15C274.261 282.413 289.021 302.827 289.021 302.827Z" fill="#FF8473"/>
<path d="M342.459 266.17C341.346 266.489 340.258 266.903 339.205 267.408C337.641 268.139 336.179 269.101 334.861 270.268C336.544 269.997 338.184 269.472 339.732 268.708C340.944 268.145 342.096 267.444 343.17 266.616C342.929 266.492 342.654 266.331 342.459 266.17ZM281.125 275.542C279.56 276.263 278.101 277.226 276.793 278.401C278.473 278.126 280.109 277.597 281.652 276.829C283.22 276.113 284.684 275.154 285.996 273.982C284.31 274.241 282.669 274.767 281.125 275.542ZM308.698 281.187C308.03 279.499 307.143 277.924 306.062 276.507C306.309 278.326 306.795 280.098 307.506 281.769C308.17 283.455 309.058 285.027 310.142 286.436C309.899 284.62 309.412 282.852 308.698 281.187ZM258.996 254.099C258.32 252.418 257.429 250.847 256.349 249.432C256.601 251.248 257.091 253.015 257.804 254.681C258.465 256.373 259.353 257.95 260.44 259.361C260.193 257.542 259.707 255.77 258.996 254.099ZM245.244 228.3C243.665 227.633 242.005 227.216 240.316 227.062C241.68 228.156 243.181 229.036 244.774 229.674C246.355 230.333 248.014 230.75 249.702 230.912C248.338 229.817 246.837 228.938 245.244 228.3ZM285.274 246.87C283.694 246.182 282.03 245.744 280.335 245.57C281.701 246.67 283.206 247.554 284.804 248.194C286.385 248.854 288.044 249.27 289.732 249.432C288.394 248.339 286.921 247.455 285.354 246.808L285.274 246.87ZM271.121 224.078C270.513 225.722 270.127 227.453 269.975 229.216C270.94 227.825 271.712 226.291 272.267 224.66L271.121 224.078ZM310.795 256.563C310.185 258.271 309.799 260.063 309.649 261.886C311.649 258.904 312.893 255.409 313.259 251.747C312.233 253.206 311.403 254.815 310.795 256.526V256.563Z" fill="white"/>
<path d="M287.646 289.692C288.941 288.726 290.385 287.946 291.749 287.105C293.112 286.263 294.568 285.384 295.977 284.517C298.842 282.772 301.707 281.076 304.618 279.392C310.348 276.037 316.159 272.645 321.992 269.401C323.596 268.497 325.2 267.618 326.828 266.764C328.455 265.91 330.266 265.105 332.008 264.214C332.027 264.212 332.046 264.217 332.063 264.227C332.08 264.238 332.093 264.254 332.101 264.274C332.108 264.293 332.11 264.314 332.106 264.335C332.101 264.355 332.091 264.374 332.076 264.387C330.678 265.266 329.326 266.281 327.928 267.16C326.53 268.039 325.029 268.968 323.573 269.834C320.701 271.543 317.809 273.222 314.898 274.873C309.168 278.141 303.438 281.435 297.708 284.567L292.803 287.216C291.118 288.132 289.445 289.16 287.68 289.902C287.646 289.94 287.509 289.803 287.646 289.692Z" fill="#263238"/>
<path d="M249.656 250.076C274.261 282.4 289.021 302.802 289.021 302.802L307.621 292.081L237.715 217.281C232.89 221.28 235.858 231.964 249.656 250.076Z" fill="#263238"/>
<path d="M302.28 426.169L147.983 436.692C147.983 436.692 162.274 276.074 215.964 217.777C222.599 210.584 238.54 211.03 249.198 215.882C253.014 217.603 267.442 236.743 272.324 255.498C277.206 274.254 302.659 425.575 302.28 426.169Z" fill="#FF8473"/>
<path d="M200.825 264.932C199.26 265.655 197.798 266.614 196.482 267.779C198.17 267.506 199.811 266.964 201.352 266.17C202.92 265.454 204.383 264.494 205.696 263.323C204.01 263.607 202.37 264.149 200.825 264.932ZM276.977 278.302C276.911 278.349 276.849 278.403 276.793 278.463C276.858 278.47 276.923 278.47 276.988 278.463C276.988 278.463 276.977 278.278 276.977 278.241V278.302ZM238.368 306.058C236.802 306.78 235.34 307.738 234.025 308.906C235.708 308.635 237.347 308.11 238.895 307.346C240.458 306.626 241.917 305.667 243.227 304.499C241.545 304.758 239.908 305.283 238.368 306.058ZM221.407 376.55C219.845 377.276 218.386 378.239 217.075 379.41C218.76 379.149 220.401 378.623 221.946 377.85C223.507 377.121 224.965 376.159 226.278 374.99C224.594 375.257 222.954 375.782 221.407 376.55ZM183.291 330.744C181.733 331.473 180.275 332.431 178.959 333.591C180.645 333.331 182.285 332.805 183.83 332.032C185.391 331.307 186.849 330.349 188.162 329.184C186.475 329.471 184.835 330.017 183.291 330.806V330.744ZM157.243 428.955C155.679 429.673 154.22 430.632 152.911 431.802C154.596 431.541 156.237 431.016 157.781 430.242C159.344 429.516 160.802 428.553 162.113 427.382C160.424 427.665 158.783 428.216 157.243 429.017V428.955ZM225.04 418.295C223.477 419.015 222.018 419.974 220.708 421.143C222.392 420.876 224.032 420.351 225.579 419.583C227.139 418.853 228.597 417.89 229.911 416.723C228.221 417.002 226.579 417.553 225.04 418.357V418.295ZM301.398 419.954C300.314 420.272 299.256 420.686 298.235 421.192C296.677 421.923 295.22 422.881 293.903 424.04C295.588 423.777 297.229 423.252 298.774 422.48C299.732 422.019 300.659 421.485 301.547 420.883C301.478 420.561 301.398 420.252 301.398 419.954ZM266.548 371.586C264.982 372.311 263.52 373.274 262.205 374.445C263.869 374.171 265.489 373.646 267.018 372.886C268.585 372.163 270.048 371.2 271.361 370.026C269.688 370.293 268.06 370.818 266.525 371.586H266.548ZM215.219 238.055C214.55 236.366 213.658 234.789 212.572 233.375C212.822 235.19 213.308 236.957 214.015 238.625C214.685 240.318 215.576 241.898 216.663 243.317C216.419 241.497 215.933 239.724 215.219 238.055ZM192.15 426.912C191.485 425.219 190.597 423.639 189.514 422.22C189.758 424.04 190.244 425.812 190.958 427.481C191.626 429.173 192.513 430.753 193.594 432.173C193.361 430.351 192.874 428.577 192.15 426.912ZM182.672 380.92C181.996 379.236 181.101 377.664 180.014 376.253C180.266 378.067 180.752 379.834 181.458 381.502C182.128 383.193 183.024 384.77 184.116 386.182C183.863 384.364 183.377 382.593 182.672 380.92ZM239.766 349.327C239.092 347.638 238.205 346.059 237.13 344.634C237.369 346.456 237.855 348.229 238.574 349.896C239.237 351.59 240.125 353.17 241.21 354.588C240.959 352.77 240.473 350.999 239.766 349.327ZM215.517 291.14C214.845 289.449 213.954 287.869 212.869 286.448C213.108 288.27 213.594 290.043 214.313 291.71C214.983 293.403 215.874 294.984 216.961 296.402C216.712 294.603 216.225 292.852 215.517 291.202V291.14ZM251.879 425.043C252.084 426.567 252.47 428.056 253.025 429.475L254.401 429.376C253.735 427.84 252.887 426.404 251.879 425.104V425.043ZM293.594 387.494C292.92 385.804 292.025 384.228 290.935 382.814C291.194 384.627 291.68 386.392 292.379 388.064C293.053 389.751 293.944 391.326 295.026 392.743C294.783 390.929 294.301 389.161 293.594 387.494ZM258.996 254.1C258.32 252.418 257.429 250.847 256.349 249.432C256.601 251.248 257.091 253.015 257.804 254.681C258.465 256.373 259.353 257.95 260.44 259.361C260.193 257.542 259.707 255.77 258.996 254.1ZM245.244 228.3C243.665 227.633 242.005 227.216 240.316 227.062C241.68 228.156 243.181 229.036 244.774 229.674C246.355 230.333 248.014 230.75 249.702 230.912C248.338 229.817 246.837 228.938 245.244 228.3ZM202.04 356.606C200.466 355.912 198.805 355.474 197.112 355.306C198.48 356.404 199.984 357.288 201.581 357.931C203.164 358.586 204.822 359.002 206.509 359.169C205.158 358.087 203.668 357.223 202.086 356.606H202.04ZM164.68 402.759C163.1 402.072 161.436 401.635 159.741 401.459C162.505 403.622 165.744 404.966 169.138 405.358C167.788 404.272 166.302 403.397 164.726 402.759H164.68ZM269.642 406.473C268.062 405.786 266.399 405.349 264.703 405.173C267.467 407.336 270.707 408.68 274.1 409.072C272.749 407.988 271.264 407.113 269.688 406.473H269.642ZM262.296 337.813C260.719 337.142 259.059 336.725 257.369 336.575C258.73 337.674 260.232 338.554 261.827 339.187C263.406 339.863 265.064 340.301 266.754 340.487C265.413 339.367 263.927 338.466 262.342 337.813H262.296ZM248.269 280.073C246.692 279.4 245.032 278.983 243.342 278.835C244.703 279.93 246.205 280.806 247.8 281.435C249.376 282.121 251.036 282.558 252.727 282.734C251.386 281.617 249.899 280.72 248.315 280.073H248.269ZM185.652 300.599C185.031 302.303 184.645 304.097 184.506 305.922C186.491 302.926 187.734 299.432 188.116 295.771C187.078 297.24 186.248 298.867 185.652 300.599ZM242.505 393.09C241.884 394.794 241.498 396.588 241.359 398.413C242.376 396.94 243.194 395.319 243.789 393.597C244.394 391.888 244.779 390.097 244.935 388.274C243.919 389.744 243.109 391.366 242.528 393.09H242.505ZM268.932 306.219C268.311 307.932 267.925 309.734 267.786 311.567C269.786 308.576 271.03 305.073 271.396 301.404C270.373 302.874 269.551 304.496 268.955 306.219H268.932ZM204.034 400.666C203.413 402.375 203.027 404.173 202.888 406.002C203.898 404.518 204.712 402.889 205.306 401.162C205.918 399.454 206.303 397.662 206.452 395.838C205.442 397.315 204.636 398.941 204.057 400.666H204.034ZM161.151 357.002C160.539 358.714 160.153 360.51 160.005 362.338C161.024 360.864 161.839 359.238 162.423 357.51C163.046 355.806 163.432 354.012 163.569 352.186C162.57 353.666 161.764 355.286 161.173 357.002H161.151ZM214.302 327.364C213.676 329.071 213.289 330.87 213.156 332.7C215.154 329.712 216.398 326.213 216.766 322.549C215.73 324.015 214.9 325.637 214.302 327.364ZM230.438 258.259C229.834 259.974 229.448 261.769 229.292 263.595C230.31 262.123 231.128 260.502 231.721 258.779C232.332 257.067 232.717 255.271 232.867 253.443C231.857 254.919 231.043 256.54 230.449 258.259H230.438Z" fill="white"/>
<path d="M218.198 222.407C221.959 231.695 227.925 239.746 235.492 245.743C239.186 248.817 243.509 250.889 248.098 251.784C250.511 252.299 253.012 252.027 255.283 251.005C257.391 249.769 259.17 247.97 260.451 245.78C261.94 243.357 263.076 240.702 263.821 237.906C264.694 234.781 265.356 231.591 265.803 228.362C265.798 228.347 265.796 228.33 265.798 228.315C265.8 228.299 265.805 228.284 265.814 228.27C265.822 228.257 265.834 228.247 265.847 228.239C265.86 228.232 265.874 228.228 265.889 228.228C265.904 228.228 265.919 228.232 265.932 228.239C265.945 228.247 265.956 228.257 265.964 228.27C265.973 228.284 265.978 228.299 265.98 228.315C265.982 228.33 265.98 228.347 265.975 228.362C265.563 231.419 265.379 234.551 264.749 237.523C264.23 240.207 263.382 242.805 262.228 245.248C261.12 247.594 259.556 249.655 257.644 251.289C255.584 252.924 253.068 253.745 250.516 253.617C245.54 253.366 240.732 251.598 236.649 248.516C232.587 245.625 228.968 242.066 225.922 237.968C222.467 233.322 219.755 228.083 217.9 222.469C217.893 222.426 217.901 222.382 217.924 222.346C217.946 222.31 217.981 222.285 218.021 222.277C218.06 222.269 218.101 222.278 218.135 222.302C218.168 222.326 218.191 222.364 218.198 222.407Z" fill="#263238"/>
<path d="M251.891 246.201C242.86 247.835 228.478 232.063 223.172 219.733C222.817 218.891 224.49 210.361 226.083 199.925C227.023 193.574 227.939 186.48 228.375 179.943C228.455 178.594 265.735 192.596 265.735 192.596C265.735 192.596 261.151 206.04 260.532 217.442C260.495 218.343 260.53 219.246 260.635 220.141C260.642 220.29 260.642 220.438 260.635 220.587C261.07 225.725 260.623 244.604 251.891 246.201Z" fill="#AD6359"/>
<path d="M256.704 220.525C258.004 220.648 259.312 220.648 260.612 220.525C260.612 220.352 260.612 220.203 260.612 220.079C260.5 219.185 260.469 218.281 260.52 217.38C261.151 205.978 265.7 192.546 265.7 192.546C265.7 192.546 235.446 181.169 229.395 179.906C230.094 187.582 234.357 218.396 256.704 220.525Z" fill="#263238"/>
<path d="M222.966 135.202C219.001 149.798 226.576 191.89 236.271 201.088C250.321 214.521 273.103 215.536 283.612 197.374C293.8 179.745 283.028 125.199 272.221 116.805C256.314 104.401 228.81 113.599 222.966 135.202Z" fill="#AD6359"/>
<path d="M259.982 160.742C259.982 160.63 259.81 160.915 259.833 161.027C260.406 163.849 260.635 167.217 258.434 168.603C258.366 168.603 258.434 168.789 258.434 168.752C261.288 167.724 260.956 163.305 259.982 160.742Z" fill="#263238"/>
<path d="M257.128 158.266C252.853 158.786 254.126 167.984 258.091 167.501C262.056 167.019 260.715 157.833 257.128 158.266Z" fill="#263238"/>
<path d="M276.117 157.746C276.117 157.635 276.346 157.845 276.358 157.956C276.667 160.829 277.504 164.047 279.991 164.605C280.071 164.605 280.082 164.765 279.991 164.765C277.011 164.803 275.991 160.507 276.117 157.746Z" fill="#263238"/>
<path d="M278.065 154.379C282.26 153.351 283.864 162.488 279.979 163.453C276.094 164.419 274.547 155.245 278.065 154.379Z" fill="#263238"/>
<path d="M253.186 154.601C254.252 154.06 255.292 153.461 256.303 152.806C257.483 152.343 258.49 151.473 259.168 150.33C259.316 149.926 259.337 149.48 259.227 149.062C259.117 148.643 258.883 148.276 258.561 148.015C257.105 147 255.455 147.471 253.976 148.25C252.466 148.991 251.268 150.316 250.619 151.965C250.498 152.346 250.48 152.756 250.569 153.148C250.658 153.539 250.849 153.895 251.119 154.173C251.389 154.451 251.728 154.639 252.094 154.715C252.461 154.791 252.839 154.751 253.186 154.601Z" fill="#263238"/>
<path d="M280.77 149.216C279.592 149.152 278.417 149.019 277.252 148.82C275.998 148.861 274.766 148.457 273.745 147.669C273.466 147.355 273.292 146.949 273.251 146.516C273.209 146.084 273.303 145.648 273.516 145.279C274.513 143.757 276.209 143.521 277.836 143.645C279.485 143.729 281.047 144.465 282.225 145.713C282.475 146.016 282.638 146.391 282.695 146.792C282.753 147.193 282.701 147.603 282.547 147.973C282.394 148.343 282.144 148.658 281.829 148.878C281.513 149.099 281.146 149.216 280.77 149.216Z" fill="#263238"/>
<path d="M261.288 186.629C262.01 187.186 262.778 188.003 263.741 187.941C264.72 187.76 265.653 187.36 266.479 186.765C266.496 186.751 266.516 186.744 266.537 186.744C266.558 186.744 266.578 186.753 266.594 186.767C266.61 186.781 266.621 186.801 266.625 186.823C266.63 186.846 266.627 186.868 266.617 186.889C266.318 187.512 265.868 188.036 265.315 188.404C264.762 188.773 264.127 188.972 263.477 188.981C262.918 188.916 262.39 188.673 261.959 188.283C261.528 187.893 261.215 187.373 261.059 186.789C260.979 186.641 261.173 186.542 261.288 186.629Z" fill="#263238"/>
<path d="M262.87 177.641C263.695 178.663 264.708 179.489 265.844 180.066C266.98 180.644 268.215 180.96 269.47 180.996C270.566 181.038 271.662 180.913 272.725 180.624C272.928 180.587 273.128 180.529 273.321 180.451C273.516 180.451 273.688 180.339 273.894 180.265C274.031 180.212 274.147 180.111 274.226 179.979C274.304 179.847 274.341 179.691 274.33 179.535C274.319 179.437 274.296 179.341 274.261 179.25V179.002C274.009 176.799 273.344 173.493 273.344 173.493C274.146 173.766 278.18 175.004 277.928 173.865C276.094 164.456 274.054 154.057 270.376 145.056C270.358 144.989 270.315 144.932 270.258 144.899C270.201 144.865 270.134 144.857 270.072 144.877C270.01 144.897 269.957 144.942 269.926 145.004C269.895 145.065 269.888 145.138 269.906 145.205C271.338 154.317 274.249 163.106 275.831 172.231C274.39 171.776 272.897 171.538 271.396 171.525C271.121 171.661 272.782 177.888 272.817 178.891C272.824 178.928 272.824 178.966 272.817 179.002C269.47 180.018 266.743 179.324 263.087 177.381C262.858 177.22 262.686 177.443 262.87 177.641Z" fill="#263238"/>
<path d="M271.373 179.708C270.471 181.458 269.169 182.928 267.591 183.979C266.715 184.518 265.706 184.748 264.703 184.635C262.514 184.388 262.182 182.308 262.319 180.451C262.397 179.468 262.586 178.5 262.881 177.566C265.427 179.242 268.403 179.992 271.373 179.708Z" fill="#263238"/>
<path d="M267.591 183.979C266.715 184.518 265.706 184.748 264.703 184.635C262.514 184.388 262.182 182.308 262.319 180.451C264.611 180.339 267.075 181.627 267.591 183.979Z" fill="#FF97B8"/>
<path d="M267.018 126.697C265.916 129.094 264.267 131.148 262.225 132.664C260.184 134.181 257.818 135.109 255.352 135.363C250.458 135.809 244.98 133.555 242.15 129.086C242.07 128.95 241.875 129.086 241.955 129.222C244.98 134.001 249.977 137.269 255.432 136.65C258.03 136.296 260.496 135.212 262.586 133.507C264.675 131.802 266.314 129.535 267.339 126.932C267.408 126.635 267.11 126.474 267.018 126.697Z" fill="#263238"/>
<path d="M245.989 97.4925C239.743 97.2449 233.944 101.912 231.584 108.003C230.242 111.652 229.784 115.611 230.254 119.504C230.254 119.537 230.266 119.568 230.288 119.592C230.309 119.615 230.339 119.628 230.369 119.628C230.399 119.628 230.428 119.615 230.45 119.592C230.471 119.568 230.484 119.537 230.484 119.504C230.208 113.314 232.386 106.332 236.97 102.321C239.027 100.384 241.591 99.1885 244.307 98.9C247.022 98.6116 249.753 99.2447 252.12 100.711C254.744 102.359 256.766 104.928 257.85 107.991C257.879 108.052 257.928 108.099 257.987 108.125C258.046 108.15 258.111 108.151 258.171 108.129C258.231 108.106 258.281 108.061 258.313 108.002C258.344 107.942 258.355 107.872 258.343 107.805C257.519 104.92 255.889 102.381 253.678 100.535C251.466 98.6888 248.781 97.6262 245.989 97.4925Z" fill="#263238"/>
<path d="M293.376 101.157C291.161 97.3847 287.785 94.5786 283.841 93.2338C278.375 91.352 273.126 93.2338 267.946 95.2765C267.809 95.2765 267.889 95.5612 268.027 95.5117C272.439 93.8156 277 92.3672 281.698 93.5433C285.564 94.5081 289.001 96.8875 291.428 100.278C293.834 103.785 294.988 108.113 294.679 112.465C294.369 116.818 292.617 120.904 289.743 123.973C288.045 125.692 286.04 127.017 283.85 127.869C281.661 128.72 279.334 129.08 277.011 128.925C276.828 128.925 276.759 129.21 276.954 129.222C280.128 129.563 283.327 128.943 286.193 127.432C289.059 125.921 291.48 123.578 293.184 120.666C294.888 117.753 295.809 114.386 295.843 110.941C295.877 107.495 295.023 104.108 293.376 101.157Z" fill="#263238"/>
<path d="M222.175 138.953C222.175 138.953 220.204 126.474 222.358 121.968C224.513 117.461 230.85 114.961 230.85 114.961C230.85 114.961 232.443 103.571 241.497 100.588C249.622 97.9134 256.899 104.388 256.899 104.388C256.899 104.388 265.7 89.2598 280.266 92.9738C294.086 96.4774 296.883 117.288 286.271 126.808C278.822 133.494 265.494 128.443 265.494 128.443C264.428 128.901 254.779 139.25 243.72 130.609C243.72 130.609 237.394 139.077 231.95 135.561C231.985 135.611 226.69 140.154 222.175 138.953Z" fill="#263238"/>
<path opacity="0.2" d="M228.501 124.184C229.429 130.584 231.939 148.845 230.621 153.314C229.303 157.783 226.461 169.309 224.57 170.547C221.9 156.929 220.96 142.58 222.966 135.202C224.074 131.15 225.96 127.396 228.501 124.184Z" fill="#263238"/>
<path d="M229.888 168.987C229.888 168.987 220.72 155.691 215.07 159.269C209.42 162.847 216.651 182.357 223.447 184.821C224.297 185.204 225.209 185.397 226.13 185.388C227.05 185.379 227.959 185.169 228.802 184.77C229.645 184.371 230.405 183.791 231.035 183.065C231.664 182.34 232.151 181.484 232.466 180.55L229.888 168.987Z" fill="#AD6359"/>
<path d="M217.259 164.803C217.234 164.803 217.211 164.813 217.194 164.832C217.177 164.85 217.167 164.875 217.167 164.902C217.167 164.928 217.177 164.953 217.194 164.972C217.211 164.99 217.234 165.001 217.259 165.001C222.015 166.895 224.639 171.525 226.507 176.353C225.063 174.521 223.126 173.555 220.846 175.437C220.72 175.536 220.846 175.734 220.983 175.697C221.802 175.386 222.689 175.355 223.524 175.61C224.359 175.865 225.101 176.393 225.647 177.121C226.538 178.351 227.306 179.679 227.939 181.082C228.169 181.528 228.925 181.268 228.753 180.748C228.751 180.707 228.751 180.665 228.753 180.624C228.65 174.149 223.722 165.236 217.259 164.803Z" fill="#263238"/>
<path d="M326.977 314.712C320.869 315.95 322.496 307.222 316.835 306.653C311.173 306.083 309.477 312.843 305.994 311.877C302.51 310.911 305.008 304.164 298.075 304.102C291.141 304.04 289.56 314.353 285.366 316.73C281.171 319.107 272.152 315.071 271.075 323.328C269.998 331.586 285.48 334.334 296.596 340.116C307.713 345.897 319.734 354.687 329.762 354.068C340.511 353.338 345.187 345.773 353.415 344.573C361.643 343.372 380.552 348.868 388.609 341.081C396.665 333.294 409.672 327.018 409.867 318.575C410.062 310.131 399.794 313.845 396.505 313.437C393.216 313.028 393.525 303.706 387.199 302.406C380.873 301.106 379.315 305.34 373.814 305.761C368.313 306.182 365.952 294.619 358.24 296.699C350.527 298.779 352.51 303.483 349.175 305.538C345.84 307.593 339.354 302.926 334.85 305.068C330.346 307.21 332.42 313.66 326.977 314.712Z" fill="#455A64"/>
<path d="M351.902 320.246C358.274 320.58 355.592 312.186 361.299 310.837C367.006 309.488 369.528 315.975 372.977 314.551C376.427 313.127 373.069 306.776 380.128 305.749C387.188 304.721 390.018 314.761 394.579 316.532C399.14 318.302 407.861 313.065 409.947 321.112C412.033 329.159 396.539 334.012 385.881 341.279C375.223 348.546 364.004 358.921 353.69 359.627C342.643 360.382 336.97 353.511 328.478 353.437C319.986 353.362 301.295 361.434 292.161 354.811C283.028 348.187 269.035 343.768 267.832 335.424C266.628 327.08 277.55 329.333 280.85 328.478C284.151 327.624 282.753 318.414 289.044 316.259C295.336 314.105 297.433 318.079 303.094 317.745C308.755 317.411 309.798 305.637 317.912 306.603C326.026 307.569 324.536 312.545 328.226 314.118C331.916 315.69 337.944 310.181 342.78 311.642C347.616 313.102 346.23 319.949 351.902 320.246Z" fill="#37474F"/>
<path d="M282.019 319.837C276.61 323.774 273.653 333.072 278.008 341.911C282.363 350.75 293.387 349.624 298.636 345.749C303.885 341.874 308.32 332.205 303.839 323.96C300 316.804 291.497 312.942 282.019 319.837Z" fill="#FF8473"/>
<path opacity="0.1" d="M282.019 319.837C276.61 323.774 273.653 333.072 278.008 341.911C282.363 350.75 293.387 349.624 298.636 345.749C303.885 341.874 308.32 332.205 303.839 323.96C300 316.804 291.497 312.942 282.019 319.837Z" fill="black"/>
<path d="M283.624 322.152C279.211 325.359 276.748 332.96 280.357 340.178C283.967 347.395 292.963 346.479 297.227 343.31C301.49 340.141 305.145 332.254 301.49 325.507C298.327 319.664 291.382 316.519 283.624 322.152Z" fill="#FF8473"/>
<path d="M292.86 326.164C293.25 326.498 294.648 325.235 293.88 324.641C293.112 324.047 292.356 325.743 292.86 326.164Z" fill="white"/>
<path d="M296.126 334.446C295.932 334.928 297.41 336.08 297.754 335.127C298.098 334.173 296.39 333.802 296.126 334.446Z" fill="white"/>
<path d="M299.404 331.227C299.484 331.747 301.306 331.834 301.112 330.831C300.917 329.828 299.301 330.546 299.404 331.227Z" fill="white"/>
<path d="M292.769 322.536C293.25 322.449 293.342 320.493 292.413 320.691C291.485 320.89 292.127 322.648 292.769 322.536Z" fill="white"/>
<path d="M284.048 329.395C284.174 328.887 282.546 327.996 282.34 328.998C282.134 330.001 283.876 330.076 284.048 329.395Z" fill="white"/>
<path d="M287.944 340.339C287.543 340.029 286.202 341.354 286.993 341.911C287.784 342.468 288.471 340.747 287.944 340.339Z" fill="white"/>
<path d="M291.141 339.67C290.66 339.583 289.995 341.416 290.935 341.539C291.875 341.663 291.783 339.781 291.141 339.67Z" fill="white"/>
<path d="M287.784 331.92C288.127 331.549 287.119 329.902 286.489 330.682C285.858 331.462 287.325 332.415 287.784 331.92Z" fill="white"/>
<path d="M277.974 333.282C277.974 333.282 286.855 332.217 288.024 334.161C289.193 336.105 282.879 344.647 281.836 343.892C280.793 343.136 277.011 336.526 277.974 333.282Z" fill="#FF8473"/>
<path opacity="0.1" d="M277.974 333.282C277.974 333.282 286.855 332.217 288.024 334.161C289.193 336.105 282.879 344.647 281.836 343.892C280.793 343.136 277.011 336.526 277.974 333.282Z" fill="black"/>
<path d="M293.158 346.009C293.158 346.009 290.534 336.773 292.092 335.176C293.651 333.579 302.578 338.68 302.097 339.93C301.616 341.18 296.287 346.417 293.158 346.009Z" fill="#FF8473"/>
<path opacity="0.1" d="M293.158 346.009C293.158 346.009 290.534 336.773 292.092 335.176C293.651 333.579 302.578 338.68 302.097 339.93C301.616 341.18 296.287 346.417 293.158 346.009Z" fill="black"/>
<path d="M304.469 328.999C304.469 328.999 295.783 331.276 294.396 329.506C293.009 327.736 298.258 318.364 299.381 319.008C300.504 319.652 305.031 325.594 304.469 328.999Z" fill="#FF8473"/>
<path opacity="0.1" d="M304.469 328.999C304.469 328.999 295.783 331.276 294.396 329.506C293.009 327.736 298.258 318.364 299.381 319.008C300.504 319.652 305.031 325.594 304.469 328.999Z" fill="black"/>
<path d="M289.743 317.77C289.743 317.77 291.863 327.154 290.225 328.652C288.586 330.15 279.91 324.48 280.495 323.267C281.079 322.053 286.649 317.151 289.743 317.77Z" fill="#FF8473"/>
<path opacity="0.1" d="M289.743 317.77C289.743 317.77 291.863 327.154 290.225 328.652C288.586 330.15 279.91 324.48 280.495 323.267C281.079 322.053 286.649 317.151 289.743 317.77Z" fill="black"/>
<path d="M328.65 298.036C322.278 296.526 314.015 300.636 311.105 310.144C308.194 319.652 316.56 327.476 322.805 328.937C329.051 330.397 338.551 327.154 340.992 317.956C343.101 309.995 339.812 300.685 328.65 298.036Z" fill="#FF8473"/>
<path opacity="0.1" d="M328.65 298.036C322.278 296.526 314.015 300.636 311.105 310.144C308.194 319.652 316.56 327.476 322.805 328.937C329.051 330.397 338.551 327.154 340.992 317.956C343.101 309.995 339.812 300.685 328.65 298.036Z" fill="black"/>
<path d="M328.214 300.834C323.023 299.596 316.273 302.963 313.889 310.738C311.506 318.513 318.347 324.913 323.447 326.089C328.547 327.265 336.317 324.641 338.345 317.126C340.03 310.651 337.337 303.05 328.214 300.834Z" fill="#FF8473"/>
<path d="M331.905 310.874C331.905 311.406 333.761 311.629 333.635 310.614C333.509 309.599 331.836 310.181 331.905 310.874Z" fill="white"/>
<path d="M328.627 319.144C328.157 319.33 328.409 321.273 329.28 320.89C330.151 320.506 329.223 318.909 328.627 319.144Z" fill="white"/>
<path d="M333.039 319.478C332.741 319.912 333.933 321.385 334.472 320.543C335.01 319.701 333.417 318.921 333.039 319.478Z" fill="white"/>
<path d="M334.265 308.262C334.655 308.596 336.042 307.309 335.262 306.727C334.483 306.145 333.75 307.866 334.265 308.262Z" fill="white"/>
<path d="M323.653 306.219C324.089 305.959 323.55 304.078 322.748 304.61C321.946 305.142 323.092 306.554 323.653 306.219Z" fill="white"/>
<path d="M319.023 316.829C318.955 316.297 317.133 316.16 317.304 317.163C317.476 318.166 319.104 317.51 319.023 316.829Z" fill="white"/>
<path d="M321.671 318.859C321.396 318.414 319.711 319.169 320.273 319.986C320.834 320.803 322.026 319.404 321.671 318.859Z" fill="white"/>
<path d="M324.536 310.887C325.029 310.887 325.43 308.968 324.536 308.992C323.642 309.017 323.894 310.874 324.536 310.887Z" fill="white"/>
<path d="M316.858 304.152C316.858 304.152 323.733 310.342 323.218 312.62C322.702 314.898 312.64 315.839 312.423 314.502C312.205 313.164 314.004 305.65 316.858 304.152Z" fill="#FF8473"/>
<path opacity="0.1" d="M316.858 304.152C316.858 304.152 323.733 310.342 323.218 312.62C322.702 314.898 312.64 315.839 312.423 314.502C312.205 313.164 314.004 305.65 316.858 304.152Z" fill="black"/>
<path d="M318.829 324.814C318.829 324.814 323.195 316.383 325.338 316.495C327.481 316.606 330.231 327.117 329.062 327.637C327.894 328.157 320.708 327.55 318.829 324.814Z" fill="#FF8473"/>
<path opacity="0.1" d="M318.829 324.814C318.829 324.814 323.195 316.383 325.338 316.495C327.481 316.606 330.231 327.117 329.062 327.637C327.894 328.157 320.708 327.55 318.829 324.814Z" fill="black"/>
<path d="M338.07 321.88C338.07 321.88 330.541 316.656 330.77 314.353C330.999 312.05 340.878 309.71 341.244 310.998C341.611 312.286 340.66 320.035 338.07 321.88Z" fill="#FF8473"/>
<path opacity="0.1" d="M338.07 321.88C338.07 321.88 330.541 316.656 330.77 314.353C330.999 312.05 340.878 309.71 341.244 310.998C341.611 312.286 340.66 320.035 338.07 321.88Z" fill="black"/>
<path d="M335.377 302.642C335.377 302.642 330.552 310.775 328.421 310.528C326.289 310.28 324.123 299.621 325.315 299.212C326.507 298.804 333.646 299.794 335.377 302.642Z" fill="#FF8473"/>
<path opacity="0.1" d="M335.377 302.642C335.377 302.642 330.552 310.775 328.421 310.528C326.289 310.28 324.123 299.621 325.315 299.212C326.507 298.804 333.646 299.794 335.377 302.642Z" fill="black"/>
<path d="M346.619 343.372C351.421 348.138 360.474 349.066 367.419 342.431C374.364 335.795 370.765 324.467 366.044 319.837C361.322 315.207 351.593 312.83 345.21 319.454C339.686 325.198 338.196 335.028 346.619 343.372Z" fill="#FF8473"/>
<path opacity="0.1" d="M346.619 343.372C351.421 348.138 360.474 349.066 367.419 342.431C374.364 335.795 370.765 324.467 366.044 319.837C361.322 315.207 351.593 312.83 345.21 319.454C339.686 325.198 338.196 335.028 346.619 343.372Z" fill="black"/>
<path d="M348.315 341.143C352.235 345.031 359.638 345.786 365.31 340.376C370.983 334.966 368.049 325.705 364.164 321.905C360.28 318.104 352.361 316.185 347.146 321.595C342.654 326.287 341.439 334.322 348.315 341.143Z" fill="#FF8473"/>
<path d="M349.782 330.546C349.988 330.063 348.521 328.887 348.166 329.828C347.811 330.769 349.53 331.14 349.782 330.546Z" fill="white"/>
<path d="M356.463 325.136C356.945 325.235 357.609 323.415 356.693 323.267C355.776 323.118 355.822 325.012 356.463 325.136Z" fill="white"/>
<path d="M352.796 322.449C353.255 322.251 352.911 320.32 352.051 320.753C351.192 321.187 352.212 322.722 352.796 322.449Z" fill="white"/>
<path d="M346.527 331.462C346.344 330.967 344.556 331.326 344.946 332.254C345.336 333.183 346.78 332.093 346.527 331.462Z" fill="white"/>
<path d="M354.744 339.014C354.252 339.014 353.839 340.908 354.744 340.896C355.65 340.883 355.386 339.026 354.744 339.014Z" fill="white"/>
<path d="M363.683 332.353C363.5 332.849 365.001 333.95 365.322 332.997C365.643 332.044 363.924 331.71 363.683 332.353Z" fill="white"/>
<path d="M362.331 329.159C362.331 329.692 364.176 329.952 364.061 328.937C363.947 327.921 362.285 328.466 362.331 329.159Z" fill="white"/>
<path d="M356.142 334.495C355.718 334.223 354.481 335.671 355.317 336.154C356.154 336.637 356.704 334.854 356.142 334.495Z" fill="white"/>
<path d="M359.661 344.486C359.661 344.486 356.624 335.399 358.102 333.715C359.58 332.032 368.737 336.674 368.313 337.937C367.889 339.2 362.812 344.734 359.661 344.486Z" fill="#FF8473"/>
<path opacity="0.1" d="M359.661 344.486C359.661 344.486 356.624 335.399 358.102 333.715C359.58 332.032 368.737 336.674 368.313 337.937C367.889 339.2 362.812 344.734 359.661 344.486Z" fill="black"/>
<path d="M367.568 325.594C367.568 325.594 359.867 330.546 358.068 329.246C356.268 327.946 358.767 317.411 360.004 317.634C361.242 317.857 367.201 322.165 367.568 325.594Z" fill="#FF8473"/>
<path opacity="0.1" d="M367.568 325.594C367.568 325.594 359.867 330.546 358.068 329.246C356.268 327.946 358.767 317.411 360.004 317.634C361.242 317.857 367.201 322.165 367.568 325.594Z" fill="black"/>
<path d="M349.61 317.658C349.61 317.658 353.69 326.25 352.429 328.12C351.169 329.989 341.531 326.646 341.806 325.334C342.081 324.022 346.47 317.844 349.61 317.658Z" fill="#FF8473"/>
<path opacity="0.1" d="M349.61 317.658C349.61 317.658 353.69 326.25 352.429 328.12C351.169 329.989 341.531 326.646 341.806 325.334C342.081 324.022 346.47 317.844 349.61 317.658Z" fill="black"/>
<path d="M342.94 335.733C342.94 335.733 350.905 331.326 352.636 332.7C354.366 334.074 351.272 344.474 350.046 344.176C348.82 343.879 343.112 339.138 342.94 335.733Z" fill="#FF8473"/>
<path opacity="0.1" d="M342.94 335.733C342.94 335.733 350.905 331.326 352.636 332.7C354.366 334.074 351.272 344.474 350.046 344.176C348.82 343.879 343.112 339.138 342.94 335.733Z" fill="black"/>
<path d="M381.618 327.81C386.42 332.576 395.473 333.492 402.418 326.857C409.363 320.221 405.764 308.906 401.043 304.263C396.321 299.621 386.592 297.256 380.208 303.88C374.742 309.624 373.195 319.404 381.618 327.81Z" fill="#FF8473"/>
<path opacity="0.1" d="M381.618 327.81C386.42 332.576 395.473 333.492 402.418 326.857C409.363 320.221 405.764 308.906 401.043 304.263C396.321 299.621 386.592 297.256 380.208 303.88C374.742 309.624 373.195 319.404 381.618 327.81Z" fill="black"/>
<path d="M383.314 325.594C387.233 329.481 394.637 330.237 400.309 324.814C405.982 319.392 403.048 310.144 399.163 306.356C395.278 302.567 387.359 300.624 382.145 306.046C377.653 310.738 376.438 318.748 383.314 325.594Z" fill="#FF8473"/>
<path d="M384.781 314.935C384.987 314.452 383.52 313.288 383.165 314.229C382.81 315.17 384.506 315.566 384.781 314.935Z" fill="white"/>
<path d="M391.462 309.574C391.943 309.661 392.608 307.841 391.691 307.705C390.775 307.569 390.786 309.5 391.462 309.574Z" fill="white"/>
<path d="M387.795 306.888C388.253 306.677 387.91 304.746 387.05 305.179C386.19 305.613 387.21 307.16 387.795 306.888Z" fill="white"/>
<path d="M381.526 315.888C381.343 315.393 379.555 315.764 379.945 316.68C380.335 317.597 381.778 316.532 381.526 315.888Z" fill="white"/>
<path d="M389.743 323.44C389.25 323.44 388.838 325.346 389.743 325.322C390.648 325.297 390.385 323.465 389.743 323.44Z" fill="white"/>
<path d="M398.682 316.792C398.499 317.287 400 318.389 400.321 317.423C400.642 316.458 398.923 316.148 398.682 316.792Z" fill="white"/>
<path d="M397.33 313.585C397.33 314.118 399.175 314.378 399.06 313.375C398.945 312.372 397.284 312.892 397.33 313.585Z" fill="white"/>
<path d="M391.141 318.934C390.717 318.661 389.48 320.097 390.316 320.593C391.153 321.088 391.703 319.293 391.141 318.934Z" fill="white"/>
<path d="M394.659 328.912C394.659 328.912 391.623 319.825 393.101 318.154C394.579 316.482 403.736 321.1 403.312 322.375C402.888 323.65 397.811 329.159 394.659 328.912Z" fill="#FF8473"/>
<path opacity="0.1" d="M394.659 328.912C394.659 328.912 391.623 319.825 393.101 318.154C394.579 316.482 403.736 321.1 403.312 322.375C402.888 323.65 397.811 329.159 394.659 328.912Z" fill="black"/>
<path d="M402.567 309.983C402.567 309.983 394.866 314.935 393.066 313.697C391.267 312.459 393.766 301.862 395.003 302.072C396.241 302.282 402.246 306.603 402.567 309.983Z" fill="#FF8473"/>
<path opacity="0.1" d="M402.567 309.983C402.567 309.983 394.866 314.935 393.066 313.697C391.267 312.459 393.766 301.862 395.003 302.072C396.241 302.282 402.246 306.603 402.567 309.983Z" fill="black"/>
<path d="M384.609 302.072C384.609 302.072 388.689 310.664 387.428 312.533C386.168 314.402 376.53 311.072 376.805 309.748C377.08 308.423 381.469 302.27 384.609 302.072Z" fill="#FF8473"/>
<path opacity="0.1" d="M384.609 302.072C384.609 302.072 388.689 310.664 387.428 312.533C386.168 314.402 376.53 311.072 376.805 309.748C377.08 308.423 381.469 302.27 384.609 302.072Z" fill="black"/>
<path d="M377.939 320.172C377.939 320.172 385.904 315.764 387.634 317.126C389.365 318.488 386.271 328.899 385.044 328.602C383.818 328.305 378.111 323.576 377.939 320.172Z" fill="#FF8473"/>
<path opacity="0.1" d="M377.939 320.172C377.939 320.172 385.904 315.764 387.634 317.126C389.365 318.488 386.271 328.899 385.044 328.602C383.818 328.305 378.111 323.576 377.939 320.172Z" fill="black"/>
<path d="M264.737 336.03L298.292 385.414L385.916 379.447L413.465 325.903L264.737 336.03Z" fill="#EBEBEB"/>
<path d="M194.74 253.567C173.779 313.821 156.635 379.459 169.608 392.557C180.082 403.118 267.075 418.555 286.11 417.157C294.201 416.587 302.418 349.066 288.402 346.702C284.414 346.033 221.934 344.486 221.316 342.988C219.264 338.358 220.903 305.625 221.671 266.616C222.633 216.477 203.61 228.064 194.74 253.567Z" fill="#AD6359"/>
<path d="M281.801 416.587C304.458 419.484 332.5 424.584 356.074 413.405C358.719 412.229 360.922 410.128 362.331 407.438C372.977 402.635 374.077 395.751 374.077 395.751C382.718 387.989 382.947 380.796 382.947 380.796C382.947 380.796 395.381 375.003 393.387 366.299C391.176 356.519 374.135 366.572 361.643 365.916C332.993 364.393 288.46 353.325 280.277 352L281.801 416.587Z" fill="#AD6359"/>
<path d="M330.633 387.061C339.067 387.321 347.353 387.828 355.776 386.85C365.024 385.786 373.757 383.136 382.707 380.586C382.735 380.576 382.764 380.572 382.793 380.575C382.822 380.577 382.851 380.586 382.877 380.601C382.903 380.615 382.926 380.635 382.945 380.659C382.964 380.683 382.978 380.711 382.988 380.741C382.997 380.771 383 380.802 382.998 380.834C382.995 380.866 382.987 380.896 382.974 380.924C382.961 380.953 382.942 380.978 382.92 380.998C382.898 381.019 382.872 381.034 382.844 381.044C367.305 388.348 347.318 390.49 330.61 387.469C330.208 387.407 330.209 387.048 330.633 387.061Z" fill="#263238"/>
<path d="M327.275 405.606C335.492 405.371 349.943 404.863 374.02 395.43C374.1 395.43 374.169 395.529 374.089 395.578C359.191 403.947 343.892 407.054 327.286 406.027C326.77 405.99 326.725 405.618 327.275 405.606Z" fill="#263238"/>
<path d="M325.636 415.597C339.606 414.631 348.292 412.105 362.308 407.352C362.377 407.352 362.445 407.463 362.365 407.5C346.974 414.718 340.591 415.448 325.602 416.166C325.086 416.141 325.086 415.634 325.636 415.597Z" fill="#263238"/>
<path d="M327.24 361.719C323.585 359.924 324.421 357.844 331.366 356.012C338.311 354.179 367.19 353.276 366.044 342.394C364.898 331.512 324.605 335.486 312.824 337.442C300.462 339.707 288.752 345.024 278.604 352.979C286.603 354.34 311.574 358.871 327.24 361.719Z" fill="#AD6359"/>
<path d="M223.069 328.565L162.113 343.223C162.113 343.223 182.959 273.833 196.493 246.771C210.704 218.569 223.745 217.566 224.616 259.98C225.384 301.874 223.069 328.565 223.069 328.565Z" fill="#FF8473"/>
<path d="M169.963 330.237C171.453 329.692 173.035 329.37 174.547 328.999L179.269 327.761C182.466 326.931 185.675 326.164 188.884 325.408C195.29 323.91 201.707 322.375 208.137 320.989C209.913 320.617 211.678 320.233 213.454 319.912C215.23 319.59 217.224 319.354 219.092 319.008C219.207 319.008 219.218 319.169 219.092 319.194C217.511 319.614 215.964 320.184 214.382 320.617C212.801 321.051 211.151 321.484 209.523 321.855C206.314 322.631 203.106 323.386 199.897 324.121C193.571 325.545 187.291 327.005 180.896 328.281L175.567 329.345C173.722 329.717 171.843 330.212 169.963 330.398C169.906 330.422 169.86 330.274 169.963 330.237Z" fill="#263238"/>
<path d="M176.003 303.397C177.47 298.927 178.81 294.434 180.22 289.952C181.813 284.864 183.257 279.726 184.804 274.613C184.804 274.489 184.632 274.415 184.586 274.539C182.672 279.986 176.152 298.135 175.12 301.218C172.106 310.193 169.092 319.169 166.147 328.169C164.497 333.22 162.709 339.051 161.082 344.102C160.967 344.474 165.861 343.037 168.428 342.208C168.565 342.208 168.657 341.651 168.485 341.7C166.055 342.295 162.755 342.678 162.388 342.777C165.517 334.235 168.519 325.631 171.465 317.002C173 312.479 174.513 307.944 176.003 303.397Z" fill="#263238"/>
<path d="M214.302 327.364C213.886 328.513 213.56 329.697 213.328 330.905L214.325 330.67C214.774 329.767 215.176 328.837 215.528 327.884C216.135 326.175 216.52 324.384 216.674 322.561C215.672 324.029 214.873 325.647 214.302 327.364ZM185.652 300.599C185.031 302.303 184.645 304.097 184.506 305.922C186.491 302.926 187.734 299.432 188.116 295.771C187.078 297.24 186.248 298.867 185.652 300.599ZM215.448 291.202C214.776 289.511 213.885 287.931 212.801 286.51C213.039 288.332 213.526 290.105 214.245 291.772C214.914 293.465 215.805 295.045 216.892 296.464C216.67 294.648 216.207 292.876 215.517 291.202H215.448ZM215.15 238.055C214.481 236.366 213.589 234.789 212.503 233.375C212.753 235.19 213.24 236.957 213.947 238.625C214.616 240.318 215.507 241.898 216.594 243.317C216.372 241.5 215.909 239.728 215.219 238.055H215.15ZM183.222 330.806C181.664 331.535 180.206 332.493 178.891 333.653C180.576 333.392 182.217 332.867 183.761 332.094C185.322 331.369 186.78 330.411 188.093 329.246C186.432 329.52 184.816 330.045 183.291 330.806H183.222ZM200.825 264.932C199.26 265.655 197.798 266.614 196.482 267.779C198.17 267.506 199.811 266.964 201.352 266.17C202.92 265.454 204.383 264.494 205.696 263.323C204.01 263.607 202.37 264.149 200.825 264.932Z" fill="white"/>
<path opacity="0.8" d="M300.252 548.162C300.252 553.349 258.606 553.287 258.618 548.087L258.824 495.571C259.722 495.497 260.602 495.259 261.426 494.866C261.555 494.804 261.666 494.702 261.743 494.573C261.82 494.445 261.862 494.295 261.862 494.142C261.862 493.988 261.82 493.838 261.743 493.71C261.666 493.581 261.555 493.479 261.426 493.417C260.596 492.997 259.717 492.701 258.813 492.538V489.716C259.714 489.645 260.597 489.411 261.426 489.022C261.553 488.952 261.66 488.844 261.735 488.712C261.81 488.58 261.849 488.428 261.849 488.273C261.849 488.119 261.81 487.967 261.735 487.835C261.66 487.702 261.553 487.595 261.426 487.524C260.585 487.148 259.709 486.87 258.813 486.695V483.872C259.713 483.792 260.596 483.554 261.426 483.167C261.554 483.098 261.661 482.992 261.736 482.861C261.812 482.73 261.852 482.578 261.852 482.424C261.852 482.269 261.812 482.118 261.736 481.987C261.661 481.856 261.554 481.75 261.426 481.681C260.588 481.291 259.711 481.008 258.813 480.839V477.979C259.708 477.89 260.588 477.665 261.426 477.311C261.554 477.242 261.661 477.136 261.736 477.005C261.812 476.874 261.852 476.723 261.852 476.568C261.852 476.414 261.812 476.262 261.736 476.131C261.661 476 261.554 475.894 261.426 475.825C260.582 475.448 259.707 475.158 258.813 474.959V463.086C258.813 458.914 271.648 445.655 273.63 443.625L273.894 443.365V440.134H285.48V443.365C285.48 443.365 300.516 458.617 300.516 463.173V475.033C299.622 475.24 298.747 475.534 297.903 475.912C297.778 475.964 297.673 476.06 297.605 476.184C297.509 476.34 297.465 476.527 297.479 476.713C297.494 476.9 297.566 477.076 297.685 477.212C297.739 477.296 297.814 477.361 297.903 477.398C298.736 477.751 299.612 477.977 300.504 478.066V480.926C299.639 481.09 298.794 481.355 297.983 481.718H297.891C297.763 481.787 297.656 481.893 297.58 482.024C297.505 482.155 297.465 482.307 297.465 482.461C297.465 482.615 297.505 482.767 297.58 482.898C297.656 483.029 297.763 483.135 297.891 483.204L298.098 483.29C298.868 483.635 299.684 483.848 300.516 483.922V486.744C299.792 486.882 299.082 487.093 298.395 487.376L297.903 487.574C297.775 487.643 297.667 487.749 297.592 487.88C297.516 488.011 297.477 488.162 297.477 488.317C297.477 488.471 297.516 488.622 297.592 488.754C297.667 488.885 297.775 488.991 297.903 489.06C298.096 489.166 298.3 489.249 298.51 489.307C299.156 489.558 299.831 489.713 300.516 489.765V492.588C299.916 492.7 299.325 492.866 298.751 493.083C298.441 493.207 298.155 493.343 297.914 493.467C297.784 493.529 297.674 493.631 297.597 493.759C297.519 493.888 297.478 494.038 297.478 494.191C297.478 494.344 297.519 494.494 297.597 494.623C297.674 494.752 297.784 494.853 297.914 494.915C298.233 495.067 298.563 495.191 298.9 495.287C299.43 495.46 299.975 495.572 300.527 495.621V522.857L300.252 548.162Z" fill="white"/>
<path opacity="0.8" d="M296.871 468.954L296.814 518.128L296.677 544.126C296.677 548.384 262.388 548.347 262.4 544.051L262.606 469.4C265.505 470.514 272.267 472.78 278.123 472.111C283.979 471.443 291.451 469.202 296.814 468.719C296.845 468.793 296.865 468.873 296.871 468.954Z" fill="#EBEBEB"/>
<path d="M287.912 432.211L271.524 432.186C271.202 432.186 270.94 432.468 270.939 432.817L270.931 439.502C270.93 439.851 271.191 440.134 271.514 440.134L287.902 440.159C288.225 440.159 288.487 439.877 288.487 439.528L288.496 432.843C288.496 432.495 288.235 432.211 287.912 432.211Z" fill="#FF8473"/>
<path d="M58.0564 505.735C59.482 505.726 60.8758 505.278 62.075 504.445C63.2742 503.612 64.2294 502.428 64.8292 501.031C64.8292 501.031 67.8776 504.237 72.8512 502.021C77.8249 499.805 83.0277 486.311 79.3376 475.082C75.6475 463.854 65.9523 461.204 58.148 469.982C47.5934 465.81 39.9266 472.805 41.2331 484.64C42.5395 496.475 52.716 506.132 58.0564 505.735Z" fill="#FF8473"/>
<path d="M49.1978 457.181C51.9285 458.051 54.3866 459.712 56.3057 461.984C58.2248 464.256 59.5317 467.052 60.0848 470.069C60.589 472.842 56.6468 473.857 56.0967 471.059C55.2372 466.379 51.5127 464.3 47.2954 462.938C44.7742 462.121 46.6651 456.364 49.1978 457.181Z" fill="#37474F"/>
<path d="M57.4146 472.916C57.4146 472.916 58.1824 460.004 69.6883 458.32C69.1929 461.785 67.7652 465.016 65.5829 467.611C63.4005 470.207 60.56 472.051 57.4146 472.916Z" fill="#37474F"/>
<path d="M96.6422 503.544C97.5373 504.748 98.7322 505.652 100.086 506.147C101.441 506.643 102.898 506.71 104.286 506.342C104.286 506.342 103.839 510.923 108.526 513.77C113.213 516.617 126.255 512.693 132.145 502.628C138.036 492.563 133.967 482.684 122.759 481.471C119.321 469.932 109.443 467.741 101.639 476.16C93.8345 484.578 93.0323 499.211 96.6422 503.544Z" fill="#FF8473"/>
<path d="M126.507 466.008C127.561 468.864 127.872 471.978 127.405 475.011C126.939 478.044 125.712 480.882 123.86 483.216C122.152 485.37 118.955 482.61 120.674 480.455C123.55 476.828 122.771 472.396 121.144 467.952C120.17 465.315 125.533 463.359 126.507 466.008Z" fill="#37474F"/>
<path d="M120.17 482.671C120.17 482.671 130.048 475.343 138.38 484.083C135.55 485.801 132.316 486.584 129.078 486.333C125.841 486.082 122.743 484.809 120.17 482.671Z" fill="#37474F"/>
<path d="M89.0786 511.517C87.6728 511.262 86.3629 510.582 85.3017 509.553C84.2405 508.525 83.4717 507.193 83.085 505.711C83.085 505.711 79.647 508.36 74.9942 505.327C70.3415 502.294 67.2587 488.069 72.5418 477.608C77.8249 467.147 87.7836 466.194 94.2127 476.184C105.249 473.882 111.792 482.102 108.767 493.516C105.741 504.931 94.3387 512.817 89.0786 511.517Z" fill="#FF8473"/>
<path opacity="0.1" d="M89.0786 511.517C87.6728 511.262 86.3629 510.582 85.3017 509.553C84.2405 508.525 83.4717 507.193 83.085 505.711C83.085 505.711 79.647 508.36 74.9942 505.327C70.3415 502.294 67.2587 488.069 72.5418 477.608C77.8249 467.147 87.7836 466.194 94.2127 476.184C105.249 473.882 111.792 482.102 108.767 493.516C105.741 504.931 94.3387 512.817 89.0786 511.517Z" fill="black"/>
<path d="M104.939 465.079C102.121 465.48 99.4574 466.703 97.2358 468.619C95.0142 470.534 93.3191 473.069 92.3332 475.949C91.4279 478.598 95.2097 480.282 96.1265 477.608C97.6506 473.139 101.627 471.715 106.005 471.096C108.583 470.725 107.552 464.708 104.939 465.079Z" fill="#37474F"/>
<path d="M94.5335 479.106C94.5335 479.106 95.6795 466.231 84.5519 462.603C84.5319 466.109 85.4679 469.543 87.243 472.478C89.018 475.413 91.5536 477.718 94.5335 479.106Z" fill="#37474F"/>
<path d="M149.691 509.301C148.323 509.74 146.868 509.751 145.494 509.332C144.121 508.914 142.886 508.083 141.932 506.936C141.932 506.936 139.892 510.972 134.517 510.427C129.143 509.883 120.536 498.617 121.029 486.707C121.522 474.798 130.071 469.214 139.915 475.132C148.877 467.815 158.102 472.087 160.05 483.798C161.999 495.51 154.939 507.976 149.691 509.301Z" fill="#FF8473"/>
<path opacity="0.1" d="M149.691 509.301C148.323 509.74 146.868 509.751 145.494 509.332C144.121 508.914 142.886 508.083 141.932 506.936C141.932 506.936 139.892 510.972 134.517 510.427C129.143 509.883 120.536 498.617 121.029 486.707C121.522 474.798 130.071 469.214 139.915 475.132C148.877 467.815 158.102 472.087 160.05 483.798C161.999 495.51 154.939 507.976 149.691 509.301Z" fill="black"/>
<path d="M145.015 460.066C142.649 461.767 140.758 464.134 139.547 466.912C138.335 469.689 137.848 472.771 138.139 475.825C138.402 478.648 142.482 478.301 142.219 475.516C141.772 470.774 144.763 467.617 148.441 464.968C150.596 463.396 147.215 458.493 145.015 460.066Z" fill="#37474F"/>
<path d="M141.405 477.645C141.405 477.645 137.176 465.538 125.716 467.568C127.128 470.724 129.369 473.363 132.158 475.154C134.948 476.946 138.163 477.812 141.405 477.645Z" fill="#37474F"/>
<path d="M159.844 492.39C159.844 492.39 149.358 534.816 135.641 534.816H63.03C49.278 534.816 38.8379 492.39 38.8379 492.39H159.844Z" fill="#EBEBEB"/>
<path d="M463.775 495.386C474.673 480.53 474.318 477.521 474.169 476.209C474.169 475.862 468.496 441.26 458.331 441.26H438.334C438.402 437.101 438.517 433.907 438.609 433.189C439.01 430.019 440.419 426.999 442.665 426.999C444.912 426.999 444.957 424.015 442.665 424.015H400.917C398.682 424.015 398.682 426.999 400.917 426.999C403.151 426.999 411.494 430.477 412.743 432.235C413.993 433.993 414.348 460.078 414.038 465.996C413.729 471.913 388.494 487.141 384.896 504.98C381.297 522.82 390.075 548.236 426.278 548.236C462.48 548.236 471.247 522.82 467.671 504.98C466.909 501.558 465.589 498.309 463.775 495.386ZM438.563 466.033C438.265 463.656 438.207 456.228 438.265 449.023H457.965C461.162 451.709 466.193 470.873 467.029 476.692C466.353 478.598 462.915 483.947 459.328 488.985C450.745 478.376 439.01 469.97 438.517 466.033H438.563Z" fill="white"/>
<path d="M463.775 495.386C465.792 492.6 467.774 489.778 469.619 486.856C470.536 485.395 471.43 483.909 472.221 482.374C473.075 480.874 473.701 479.235 474.077 477.521C474.149 476.647 474.071 475.766 473.848 474.922L473.344 472.334C473 470.601 472.618 468.88 472.198 467.172C471.384 463.755 470.444 460.363 469.356 457.032C468.291 453.699 466.92 450.489 465.265 447.45C464.446 445.943 463.431 444.572 462.251 443.377C461.685 442.776 461.016 442.301 460.28 441.98C459.545 441.659 458.758 441.499 457.964 441.508H438.322H438.058V441.223L438.23 436.098L438.311 433.548C438.363 432.681 438.513 431.825 438.758 430.997C438.986 430.151 439.33 429.345 439.777 428.608C440.228 427.824 440.898 427.217 441.691 426.875C441.894 426.793 442.106 426.743 442.322 426.726H442.906C443.234 426.696 443.542 426.543 443.777 426.293C443.876 426.171 443.948 426.027 443.989 425.871C444.029 425.715 444.036 425.551 444.01 425.392C443.983 425.232 443.924 425.081 443.836 424.95C443.748 424.819 443.634 424.711 443.502 424.634C442.798 424.4 442.057 424.324 441.325 424.411H434.254H424.811H405.925H401.215C400.458 424.411 399.816 424.609 399.645 425.241C399.609 425.395 399.605 425.555 399.633 425.711C399.661 425.867 399.72 426.014 399.807 426.143C399.893 426.271 400.004 426.378 400.132 426.455C400.261 426.532 400.403 426.578 400.55 426.59C400.836 426.59 401.329 426.59 401.696 426.714C402.063 426.838 402.487 426.887 402.842 426.986C403.621 427.209 404.378 427.457 405.134 427.741C406.635 428.295 408.108 428.936 409.546 429.66C410.273 430.031 410.981 430.444 411.666 430.898C412.024 431.135 412.365 431.399 412.686 431.691C412.873 431.866 413.025 432.081 413.133 432.322C413.221 432.541 413.286 432.769 413.328 433.003C413.622 434.696 413.818 436.408 413.912 438.128C414.141 441.533 414.256 444.925 414.348 448.329C414.439 451.734 414.497 455.138 414.508 458.543C414.508 460.239 414.508 461.947 414.508 463.656C414.508 464.51 414.508 465.327 414.416 466.243C414.238 467.161 413.843 468.014 413.27 468.719C411.205 471.327 408.939 473.741 406.498 475.937C404.137 478.19 401.776 480.431 399.496 482.758C394.969 487.425 390.58 492.39 387.6 498.32C386.086 501.257 385.124 504.488 384.769 507.828C384.351 511.166 384.386 514.553 384.873 517.88L385.033 519.118C385.113 519.527 385.216 519.935 385.308 520.356L385.87 522.832L386.695 525.197L387.107 526.373L387.634 527.499L388.712 529.74C389.124 530.446 389.594 531.127 390.03 531.82C390.913 533.206 391.906 534.507 392.998 535.707C393.528 536.321 394.098 536.892 394.705 537.416L396.482 539.05C397.799 539.954 399.06 540.957 400.412 541.786C401.765 542.615 403.186 543.346 404.641 543.952C406.097 544.559 407.575 545.19 409.076 545.611C415.14 547.35 421.404 548.134 427.676 547.939L432.374 547.741C433.933 547.58 435.491 547.32 437.039 547.109C438.584 546.879 440.115 546.544 441.623 546.107C442.379 545.908 443.158 545.748 443.915 545.5L446.126 544.658C452.088 542.515 457.399 538.664 461.494 533.516C461.998 532.872 462.4 532.142 462.858 531.461C463.337 530.792 463.763 530.079 464.13 529.332L465.276 527.091C465.625 526.333 465.927 525.551 466.181 524.751C467.323 521.582 468.003 518.241 468.198 514.847C468.408 511.459 468.184 508.055 467.534 504.733C466.787 501.407 465.515 498.245 463.775 495.386ZM463.775 495.386C465.539 498.213 466.845 501.345 467.637 504.646C468.317 507.977 468.572 511.392 468.393 514.798C468.217 518.208 467.557 521.57 466.433 524.763C466.191 525.575 465.892 526.365 465.54 527.128L464.394 529.406C464.026 530.159 463.605 530.879 463.133 531.56C462.675 532.253 462.273 532.996 461.758 533.652C457.678 538.927 452.328 542.882 446.298 545.079L444.064 545.933C443.307 546.181 442.528 546.342 441.772 546.552C440.263 546.991 438.733 547.334 437.188 547.58C435.617 547.79 434.059 548.063 432.489 548.224L427.756 548.446C421.43 548.658 415.108 547.886 408.984 546.156C407.472 545.673 405.993 545.042 404.492 544.485C402.991 543.928 401.627 543.024 400.195 542.294C398.762 541.563 397.524 540.449 396.184 539.533L394.373 537.861C393.748 537.333 393.162 536.753 392.62 536.128C391.505 534.9 390.485 533.575 389.571 532.167C389.124 531.461 388.654 530.768 388.23 530.05L387.084 527.759L386.534 526.62L386.11 525.382L385.274 522.981L384.678 520.505C384.586 520.084 384.472 519.675 384.391 519.267L384.231 518.029C383.721 514.633 383.675 511.176 384.093 507.766C384.456 504.329 385.437 501.003 386.981 497.973C388.505 494.964 390.33 492.145 392.425 489.567C394.484 486.965 396.673 484.486 398.98 482.139C401.272 479.787 403.633 477.534 405.982 475.268C408.372 473.107 410.592 470.734 412.617 468.174C413.077 467.583 413.403 466.883 413.568 466.132C413.637 465.352 413.637 464.46 413.66 463.656C413.66 461.96 413.66 460.264 413.66 458.568C413.66 455.175 413.66 451.771 413.534 448.379C413.408 444.987 413.339 441.595 413.121 438.215C413.036 436.554 412.856 434.9 412.583 433.263C412.583 433.052 412.48 432.879 412.434 432.718C412.361 432.583 412.268 432.461 412.159 432.359C411.877 432.101 411.578 431.866 411.265 431.653C410.602 431.224 409.917 430.835 409.214 430.49C407.802 429.773 406.356 429.136 404.882 428.583C403.43 427.975 401.906 427.591 400.355 427.444C400.115 427.407 399.884 427.32 399.675 427.186C399.467 427.052 399.285 426.875 399.14 426.664C398.988 426.446 398.886 426.192 398.843 425.923C398.799 425.654 398.814 425.378 398.888 425.117C398.964 424.862 399.089 424.628 399.255 424.429C399.421 424.23 399.624 424.072 399.851 423.965C400.262 423.789 400.704 423.713 401.146 423.743H405.867H424.753H434.196H442.448C442.892 423.716 443.336 423.818 443.731 424.04C443.946 424.164 444.131 424.341 444.272 424.556C444.413 424.771 444.507 425.018 444.545 425.278C444.583 425.535 444.565 425.799 444.494 426.048C444.422 426.297 444.299 426.525 444.132 426.714C443.809 427.073 443.379 427.297 442.918 427.345C442.53 427.339 442.143 427.398 441.772 427.519C441.089 427.807 440.514 428.329 440.133 429.004C439.715 429.692 439.395 430.443 439.182 431.233C438.789 432.848 438.611 434.515 438.654 436.185L438.482 441.248L438.219 440.963H457.861C459.574 440.953 461.222 441.674 462.445 442.969C463.657 444.198 464.695 445.612 465.528 447.166C467.175 450.242 468.53 453.489 469.573 456.859C470.651 460.214 471.556 463.619 472.347 467.06C472.736 468.769 473.103 470.502 473.493 472.235L473.974 474.835C474.194 475.701 474.26 476.604 474.169 477.497C473.787 479.228 473.145 480.88 472.267 482.387C471.453 483.934 470.548 485.407 469.619 486.856C467.809 489.815 465.815 492.613 463.775 495.386Z" fill="#263238"/>
<path d="M438.517 466.033C438.356 464.621 438.322 463.21 438.265 461.786L438.173 457.528V449.023V448.936H438.253L457.953 448.676H458.079L458.148 448.75L458.801 449.456C458.984 449.716 459.145 449.988 459.317 450.248C459.641 450.772 459.939 451.313 460.211 451.87C460.738 452.984 461.196 454.123 461.643 455.262C462.503 457.565 463.259 459.905 463.935 462.257C464.611 464.609 465.299 466.974 465.872 469.363C466.445 471.752 467.018 474.166 467.362 476.63V476.741V476.84C466.87 477.992 466.291 479.097 465.631 480.146C465.001 481.186 464.336 482.201 463.66 483.216C462.315 485.222 460.933 487.203 459.512 489.159L459.317 489.419L459.111 489.171C455.837 485.128 452.335 481.307 448.625 477.732C446.78 475.924 444.912 474.142 443.101 472.297C442.196 471.369 441.302 470.44 440.477 469.425C439.569 468.491 438.895 467.324 438.517 466.033ZM438.517 466.033C438.899 467.315 439.572 468.473 440.477 469.4C441.313 470.403 442.218 471.331 443.124 472.247C444.957 474.067 446.837 475.838 448.693 477.608C452.491 481.086 456.092 484.806 459.477 488.75H459.076C460.451 486.769 461.788 484.764 463.087 482.733C463.729 481.706 464.371 480.678 464.978 479.651C465.606 478.644 466.158 477.584 466.628 476.481V476.692C466.239 474.303 465.677 471.913 465.081 469.536C464.485 467.159 463.855 464.807 463.179 462.455C462.503 460.103 461.758 457.788 460.887 455.51C460.474 454.371 460.016 453.257 459.523 452.155C459.073 451.08 458.461 450.092 457.712 449.233L457.907 449.307L438.207 449.047L438.288 448.961C438.242 451.8 438.242 454.635 438.288 457.466V461.724C438.345 463.198 438.368 464.621 438.517 466.033Z" fill="#263238"/>
<path d="M425.384 542.244C394.946 542.244 387.566 520.876 390.58 505.896C393.594 490.917 419.23 474.129 418.691 469.264C418.599 468.311 418.531 449.233 418.496 447.24H433.658C433.658 449.32 433.772 468.41 433.876 469.264C434.483 474.117 457.151 490.879 460.234 505.896C463.316 520.913 455.821 542.244 425.384 542.244Z" fill="#FF8473"/>
<path d="M393.915 106.951C393.271 113.82 390.868 120.359 386.974 125.834C383.081 131.309 377.853 135.504 371.875 137.947C365.898 140.39 359.408 140.985 353.135 139.665C346.862 138.344 341.054 135.161 336.362 130.473L319.172 133.209L327.79 117.115C325.633 111.45 324.821 105.292 325.43 99.201C326.479 89.4734 331.036 80.5847 338.111 74.4624C345.187 68.34 354.212 65.4776 363.228 66.4958C372.245 67.514 380.526 72.3307 386.277 79.9015C392.028 87.4722 394.785 97.1867 393.949 106.938L393.915 106.951Z" fill="white"/>
<path d="M393.915 106.951C393.249 113.81 390.846 120.338 386.97 125.818C385.999 127.179 384.954 128.477 383.841 129.705C382.695 130.891 381.481 131.999 380.208 133.023C377.667 135.086 374.87 136.753 371.9 137.975C368.927 139.233 365.807 140.037 362.629 140.364C361.036 140.515 359.436 140.548 357.839 140.464C356.239 140.423 354.645 140.245 353.071 139.931C346.719 138.664 340.819 135.514 336.03 130.832L336.443 130.968L319.253 133.828L318.004 134.038L318.634 132.8L327.206 116.706V117.338C325.178 112.01 324.308 106.251 324.664 100.503C325.02 94.7556 326.591 89.1727 329.257 84.184C331.943 79.2328 335.629 75.0008 340.041 71.804C344.454 68.6513 349.469 66.6172 354.713 65.854C359.956 65.0908 365.291 65.6182 370.319 67.3967C375.3 69.227 379.842 72.234 383.612 76.1989C387.371 80.1487 390.252 84.9685 392.036 90.2953C393.821 95.6221 394.463 101.317 393.915 106.951ZM393.915 106.951C394.462 101.348 393.812 95.6847 392.015 90.396C390.218 85.1074 387.322 80.3345 383.55 76.4446C379.777 72.5547 375.229 69.6516 370.255 67.9585C365.281 66.2655 360.014 65.8276 354.859 66.6787C349.749 67.5113 344.881 69.59 340.626 72.7573C336.412 75.9479 332.892 80.0923 330.312 84.9021C327.77 89.7267 326.274 95.1105 325.934 100.649C325.615 106.179 326.445 111.716 328.363 116.855L328.489 117.189L328.318 117.486L319.654 133.58L319.035 132.602L336.294 129.99H336.534L336.706 130.163C341.307 134.819 347.017 137.995 353.197 139.337C354.739 139.673 356.302 139.88 357.873 139.956C362.603 140.309 367.348 139.557 371.785 137.752C374.761 136.596 377.561 134.968 380.094 132.924C382.674 130.933 384.958 128.528 386.867 125.793C390.785 120.338 393.225 113.815 393.915 106.951Z" fill="#263238"/>
<path d="M374.261 110.095C370.4 115.708 365.463 120.353 359.787 123.713C354.115 120.35 349.182 115.705 345.324 110.095C340.236 102.816 340.488 91.4139 347.765 88.9503C355.787 86.2267 359.787 99.3247 359.787 99.3247C359.787 99.3247 363.809 86.14 371.82 88.9503C379.074 91.5005 379.326 102.816 374.261 110.095Z" fill="#FF8473"/>
</svg>
