<svg width="26" height="16" viewBox="0 0 26 16" fill="none" xmlns="http://www.w3.org/2000/svg">
<path fill-rule="evenodd" clip-rule="evenodd" d="M17.451 7.9446L25.9474 0.988624C25.9825 1.10169 26.0002 1.21847 26 1.33578V14.5536C26.0002 14.6709 25.9825 14.7877 25.9474 14.9008L17.451 7.9446ZM0.86934 15.7593C1.07186 15.8448 1.29373 15.8891 1.51841 15.8889H24.4814C24.7442 15.8889 25.0023 15.8285 25.2302 15.7133L16.5966 8.64434L15.0303 9.92629C14.493 10.3564 13.789 10.589 13.0627 10.5767C12.3328 10.5747 11.6298 10.3337 11.0907 9.90093L9.55755 8.64538L0.86934 15.7593ZM0.0866602 0.889726C0.0288259 1.03291 -0.000594439 1.18372 9.13095e-06 1.33559V14.5534C-0.000595419 14.7053 0.0288253 14.8561 0.0866602 14.9993L8.70326 7.94442L0.0866602 0.889726ZM24.4802 0.000461718L1.5182 0.000638929C1.29352 0.000461729 1.07166 0.0447646 0.869134 0.130182L9.95054 7.56658L9.95437 7.56959L11.884 9.14978C12.2091 9.40975 12.6323 9.55382 13.0716 9.55435C13.5006 9.56375 13.9175 9.42871 14.2369 9.17654L16.2013 7.56941L16.2041 7.56692L25.2303 0.17544C25.0024 0.0604277 24.7442 0 24.4814 0L24.4802 0.000461718Z" fill="#E0E0E0"/>
</svg>
