<svg width="1440" height="122" viewBox="0 0 1440 122" fill="none" xmlns="http://www.w3.org/2000/svg">
<path d="M-133.091 -376.726C-136.57 -389.452 -126.991 -402 -113.799 -402H1511.96C1522.21 -402 1530.8 -394.249 1531.85 -384.052L1581.42 96.4917C1582.74 109.285 1571.81 119.981 1559.05 118.39L1309.38 87.2685C1254.55 80.4346 1199.26 78.1559 1144.06 80.456L927 89.5L567.337 108.039C516.188 110.676 464.912 109.379 413.961 104.16L204.417 82.6963C203.142 82.5657 201.857 82.558 200.581 82.6732L14.1749 99.4952C4.52571 100.366 -4.36011 94.1954 -6.91481 84.8499L-133.091 -376.726Z" fill="#BEEBC2" fill-opacity="0.5"/>
<path d="M-51.6741 -331.131C-50.1339 -340.847 -41.7575 -348 -31.9207 -348H1923.54C1940.62 -348 1949.84 -327.965 1938.73 -314.99L1604.64 75.0764C1601.04 79.2791 1595.86 81.8027 1590.33 82.0468L1278.06 95.8395C1230.42 97.9436 1182.69 96.5229 1135.26 91.5889C984.607 75.9171 832.637 77.9875 682.469 97.7576L644.17 102.8C582.525 110.916 520.256 113.264 458.174 109.815L182.5 94.5L-93.8927 73.1677C-105.535 72.2691 -113.935 61.6289 -112.107 50.0956L-51.6741 -331.131Z" fill="#DDF7E3" fill-opacity="0.5"/>
</svg>
