<svg width="26" height="14" viewBox="0 0 26 14" fill="none" xmlns="http://www.w3.org/2000/svg">
<path d="M25.6839 6.63016C25.4526 6.35941 19.9433 0 13 0C6.05672 0 0.546952 6.35965 0.316145 6.63016L0 7L0.316145 7.36984C0.547033 7.64059 6.05672 14 13 14C19.9433 14 25.4525 7.64035 25.6839 7.36984L26 7L25.6839 6.63016ZM13 12.8909C7.46314 12.8909 2.72457 8.34486 1.44309 7.00014C2.72432 5.65522 7.46314 1.10941 13 1.10941C18.5369 1.10941 23.2754 5.65543 24.5569 7.00014C23.2757 8.34507 18.5369 12.8909 13 12.8909Z" fill="#E0E0E0"/>
<path d="M8.17676 7.00013C8.17676 9.78967 10.3408 12.0595 13.0003 12.0595C15.6598 12.0595 17.8238 9.78967 17.8238 7.00013C17.8238 4.2106 15.6598 1.94078 13.0003 1.94078C10.3408 1.94078 8.17676 4.2106 8.17676 7.00013ZM16.7668 7.00013C16.7668 9.1787 15.0771 10.9508 13.0003 10.9508C10.9233 10.9508 9.23385 9.17865 9.23385 7.00013C9.23385 4.82162 10.9236 3.04988 13.0003 3.04988C15.0773 3.04988 16.7668 4.82157 16.7668 7.00013Z" fill="#E0E0E0"/>
<path d="M10.8846 4.27872C10.984 4.24871 11.0865 4.22774 11.1941 4.22774C11.814 4.22774 12.3172 4.75524 12.3172 5.40615C12.3172 6.05701 11.8143 6.58456 11.1941 6.58456C10.5736 6.58456 10.0706 6.05643 10.0706 5.40615C10.0706 5.36298 10.0786 5.32165 10.0828 5.27951C9.80934 5.78894 9.65137 6.37445 9.65137 7.00021C9.65137 8.93947 11.1504 10.5118 12.9992 10.5118C14.8481 10.5118 16.3471 8.93947 16.3471 7.00021C16.3471 5.06058 14.8481 3.48866 12.9992 3.48866C12.1978 3.48846 11.4616 3.78511 10.8846 4.27872Z" fill="#E0E0E0"/>
</svg>
