<svg width="26" height="18" viewBox="0 0 26 18" fill="none" xmlns="http://www.w3.org/2000/svg">
<path d="M25.6838 8.63016C25.4526 8.35941 19.9433 2 13 2C6.05672 2 0.546952 8.35965 0.316145 8.63016L0 9L0.316145 9.36984C0.547033 9.64059 6.05672 16 13 16C19.9433 16 25.4525 9.64035 25.6838 9.36984L26 9L25.6838 8.63016ZM13 14.8909C7.46314 14.8909 2.72457 10.3449 1.44309 9.00014C2.72432 7.65522 7.46314 3.10941 13 3.10941C18.5369 3.10941 23.2754 7.65543 24.5569 9.00014C23.2757 10.3451 18.5369 14.8909 13 14.8909Z" fill="#E0E0E0"/>
<path d="M8.17676 9.00013C8.17676 11.7897 10.3408 14.0595 13.0003 14.0595C15.6598 14.0595 17.8238 11.7897 17.8238 9.00013C17.8238 6.2106 15.6598 3.94078 13.0003 3.94078C10.3408 3.94078 8.17676 6.2106 8.17676 9.00013ZM16.7668 9.00013C16.7668 11.1787 15.0771 12.9508 13.0003 12.9508C10.9233 12.9508 9.23385 11.1786 9.23385 9.00013C9.23385 6.82162 10.9236 5.04988 13.0003 5.04988C15.0773 5.04988 16.7668 6.82157 16.7668 9.00013Z" fill="#E0E0E0"/>
<path d="M10.8846 6.27872C10.984 6.24871 11.0865 6.22774 11.1941 6.22774C11.814 6.22774 12.3172 6.75524 12.3172 7.40615C12.3172 8.05701 11.8143 8.58456 11.1941 8.58456C10.5736 8.58456 10.0706 8.05643 10.0706 7.40615C10.0706 7.36298 10.0786 7.32165 10.0828 7.27951C9.80934 7.78894 9.65137 8.37445 9.65137 9.00021C9.65137 10.9395 11.1504 12.5118 12.9992 12.5118C14.8481 12.5118 16.3471 10.9395 16.3471 9.00021C16.3471 7.06058 14.8481 5.48866 12.9992 5.48866C12.1978 5.48846 11.4616 5.78511 10.8846 6.27872Z" fill="#E0E0E0"/>
<line x1="3.32382" y1="0.61903" x2="23.1342" y2="17.4579" stroke="#E0E0E0"/>
</svg>
