<svg width="22" height="19" viewBox="0 0 22 19" fill="none" xmlns="http://www.w3.org/2000/svg">
<path fill-rule="evenodd" clip-rule="evenodd" d="M7.4277 0.5C7.8477 0.5 8.1887 0.834385 8.1887 1.24722C8.1887 1.65907 7.8487 1.99345 7.4277 1.99345L5.7987 1.99444C4.4467 1.9964 3.3467 3.07604 3.3467 4.40279V6.26201C3.3467 6.67386 3.0047 7.00923 2.5847 7.00923C2.1647 7.00923 1.8237 6.67386 1.8237 6.26201V4.40279C1.8237 2.25331 3.6067 0.502942 5.7977 0.500981L7.4267 0.5H7.4277ZM14.6006 0.500294H16.1936C18.3906 0.500294 20.1766 2.25165 20.1766 4.40603V6.2623C20.1766 6.67415 19.8366 7.00952 19.4156 7.00952C18.9956 7.00952 18.6546 6.67415 18.6546 6.2623V4.40603C18.6546 3.07535 17.5506 1.99277 16.1936 1.99277H14.6006C14.1806 1.99277 13.8396 1.65936 13.8396 1.24751C13.8396 0.834679 14.1806 0.500294 14.6006 0.500294ZM13.7625 4.24266H8.2385C6.9745 4.25541 5.9585 5.26837 5.9695 6.50883V7.75419C5.9725 7.89932 6.0915 8.01797 6.2395 8.02287H15.7595C15.9085 8.01895 16.0275 7.9003 16.0325 7.75419V6.50883C16.0335 5.90968 15.7975 5.33407 15.3715 4.90554C14.9485 4.48094 14.3675 4.24266 13.7625 4.24266ZM0.762 9.54123H21.239C21.659 9.54123 22 9.87562 22 10.2885C22 10.7003 21.659 11.0337 21.239 11.0337H20.177V14.5933C20.177 16.7486 18.39 18.5 16.194 18.5H14.601C14.18 18.5 13.839 18.1656 13.839 17.7528C13.839 17.3409 14.18 17.0065 14.601 17.0065H16.194C17.551 17.0065 18.655 15.9249 18.655 14.5933V11.0337H16.032V12.0251C16.042 13.2656 15.027 14.2795 13.762 14.2913H8.238C6.974 14.2795 5.959 13.2656 5.969 12.0251V11.0337H3.346V14.5972C3.346 15.924 4.447 17.0036 5.8 17.0056L7.428 17.0065C7.848 17.0065 8.189 17.3409 8.189 17.7528C8.188 18.1656 7.848 18.5 7.427 18.5L5.798 18.499C3.607 18.4971 1.823 16.7467 1.823 14.5972V11.0337H0.762C0.342 11.0337 0 10.7003 0 10.2885C0 9.87562 0.342 9.54123 0.762 9.54123Z" fill="#252525"/>
</svg>
