<svg width="22" height="21" viewBox="0 0 22 21" fill="none" xmlns="http://www.w3.org/2000/svg">
<path d="M19.7664 10.5C19.7664 9.35156 20.4828 8.37266 21.5 7.97891C21.232 6.85781 20.7891 5.80781 20.2039 4.85625C19.8539 5.00938 19.482 5.09141 19.1047 5.09141C18.4156 5.09141 17.7266 4.82891 17.1961 4.30391C16.3812 3.48906 16.2008 2.29141 16.6383 1.29609C15.6922 0.710937 14.6367 0.267969 13.5211 0C13.1328 1.01172 12.1484 1.73359 11 1.73359C9.85156 1.73359 8.86719 1.01172 8.47891 0C7.35781 0.267969 6.30781 0.710937 5.35625 1.29609C5.79922 2.28594 5.61328 3.48906 4.79844 4.30391C4.27344 4.82891 3.57891 5.09141 2.88984 5.09141C2.5125 5.09141 2.14062 5.01484 1.79062 4.85625C1.21094 5.81328 0.767969 6.86328 0.5 7.98438C1.51172 8.37266 2.23359 9.35156 2.23359 10.5055C2.23359 11.6539 1.51719 12.6328 0.505469 13.0266C0.773437 14.1477 1.21641 15.1977 1.80156 16.1492C2.15156 15.9961 2.52344 15.9195 2.89531 15.9195C3.58438 15.9195 4.27344 16.182 4.80391 16.707C5.61328 17.5164 5.79922 18.7195 5.36172 19.7094C6.31328 20.2945 7.36875 20.7375 8.48438 21.0055C8.87266 19.9938 9.85156 19.2773 11 19.2773C12.1484 19.2773 13.1273 19.9938 13.5156 21.0055C14.6367 20.7375 15.6867 20.2945 16.6383 19.7094C16.2008 18.7195 16.3867 17.5219 17.1961 16.707C17.7211 16.182 18.4102 15.9195 19.1047 15.9195C19.4766 15.9195 19.8539 15.9961 20.1984 16.1492C20.7836 15.1977 21.2266 14.1422 21.4945 13.0266C20.4883 12.6328 19.7664 11.6539 19.7664 10.5ZM11.0492 14.8695C8.62656 14.8695 6.67422 12.9063 6.67422 10.4945C6.67422 8.08281 8.62656 6.11953 11.0492 6.11953C13.4719 6.11953 15.4242 8.08281 15.4242 10.4945C15.4242 12.9063 13.4719 14.8695 11.0492 14.8695Z" fill="black"/>
</svg>
